<?xml version="1.0" encoding="UTF-8" standalone="no"?>
<!DOCTYPE svg PUBLIC "-//W3C//DTD SVG 1.1//EN"
 "http://www.w3.org/Graphics/SVG/1.1/DTD/svg11.dtd">
<!-- Generated by graphviz version 2.47.0 (20210405.1944)
 -->
<!-- Title: GetHashCode Pages: 1 -->
<svg width="298pt" height="50pt"
 viewBox="0.00 0.00 298.00 50.00" xmlns="http://www.w3.org/2000/svg" xmlns:xlink="http://www.w3.org/1999/xlink">
<g id="graph0" class="graph" transform="scale(1 1) rotate(0) translate(4 46)">
<title>GetHashCode</title>
<polygon fill="white" stroke="transparent" points="-4,4 -4,-46 294,-46 294,4 -4,4"/>
<!-- Node1 -->
<g id="node1" class="node">
<title>Node1</title>
<g id="a_node1"><a xlink:title="Hash value of current object.">
<polygon fill="#bfbfbf" stroke="black" points="0,-11.5 0,-30.5 78,-30.5 78,-11.5 0,-11.5"/>
<text text-anchor="middle" x="39" y="-18.5" font-family="Helvetica,sans-Serif" font-size="10.00">GetHashCode</text>
</a>
</g>
</g>
<!-- Node2 -->
<g id="node2" class="node">
<title>Node2</title>
<g id="a_node2"><a xlink:href="class_f_s_h_f_standard_library_1_1_core_1_1_hashing_1_1_custom_hash.html#aa35db76e7c73bb0d0da3cbdf781dd635" target="_top" xlink:title="Gives initial hash value. This should be first chain of hashing fluent interface.">
<polygon fill="white" stroke="black" points="114,-0.5 114,-41.5 290,-41.5 290,-0.5 114,-0.5"/>
<text text-anchor="start" x="122" y="-29.5" font-family="Helvetica,sans-Serif" font-size="10.00">FSHFStandardLibrary.Core.</text>
<text text-anchor="start" x="122" y="-18.5" font-family="Helvetica,sans-Serif" font-size="10.00">Hashing.CustomHash.GetInitialHash</text>
<text text-anchor="middle" x="202" y="-7.5" font-family="Helvetica,sans-Serif" font-size="10.00">Number</text>
</a>
</g>
</g>
<!-- Node1&#45;&gt;Node2 -->
<g id="edge1" class="edge">
<title>Node1&#45;&gt;Node2</title>
<path fill="none" stroke="midnightblue" d="M78.15,-21C86.06,-21 94.73,-21 103.68,-21"/>
<polygon fill="midnightblue" stroke="midnightblue" points="103.89,-24.5 113.89,-21 103.89,-17.5 103.89,-24.5"/>
</g>
</g>
</svg>
