<?xml version="1.0" encoding="UTF-8" standalone="no"?>
<!DOCTYPE svg PUBLIC "-//W3C//DTD SVG 1.1//EN"
 "http://www.w3.org/Graphics/SVG/1.1/DTD/svg11.dtd">
<!-- Generated by graphviz version 2.47.1 (20210421.1823)
 -->
<!-- Title: ThrowExceptionIfNull Pages: 1 -->
<!--zoomable 411 -->
<svg id="main" version="1.1" xmlns="http://www.w3.org/2000/svg" xmlns:xlink="http://www.w3.org/1999/xlink" xml:space="preserve" onload="init(evt)">
<style type="text/css"><![CDATA[
.edge:hover path { stroke: red; }
.edge:hover polygon { stroke: red; fill: red; }
]]></style>
<script type="text/javascript"><![CDATA[
var edges = document.getElementsByTagName('g');
if (edges && edges.length) {
  for (var i=0;i<edges.length;i++) {
    if (edges[i].id.substr(0,4)=='edge') {
      edges[i].setAttribute('class','edge');
    }
  }
}
]]></script>
        <defs>
                <circle id="rim" cx="0" cy="0" r="7"/>
                <circle id="rim2" cx="0" cy="0" r="3.5"/>
                <g id="zoomPlus">
                        <use xlink:href="#rim" fill="#404040">
                                <set attributeName="fill" to="#808080" begin="zoomplus.mouseover" end="zoomplus.mouseout"/>
                        </use>
                        <path d="M-4,0h8M0,-4v8" fill="none" stroke="white" stroke-width="1.5" pointer-events="none"/>
                </g>
                <g id="zoomMin">
                        <use xlink:href="#rim" fill="#404040">
                                <set attributeName="fill" to="#808080" begin="zoomminus.mouseover" end="zoomminus.mouseout"/>
                        </use>
                        <path d="M-4,0h8" fill="none" stroke="white" stroke-width="1.5" pointer-events="none"/>
                </g>
                <g id="dirArrow">
                        <path fill="none" stroke="white" stroke-width="1.5" d="M0,-3.0v7 M-2.5,-0.5L0,-3.0L2.5,-0.5"/>
                </g>
               <g id="resetDef">
                       <use xlink:href="#rim2" fill="#404040">
                               <set attributeName="fill" to="#808080" begin="reset.mouseover" end="reset.mouseout"/>
                       </use>
               </g>
        </defs>

<script type="text/javascript">
var viewWidth = 628;
var viewHeight = 411;
var sectionId = 'dynsection-0';
</script>
<script xlink:href="svgpan.js"/>
<svg id="graph" class="graph">
<g id="viewport">
<title>ThrowExceptionIfNull</title>
<polygon fill="white" stroke="transparent" points="-4,4 -4,-407 624,-407 624,4 -4,4"/>
<!-- Node1 -->
<g id="node1" class="node">
<title>Node1</title>
<g id="a_node1"><a xlink:title="Throws ArgumentNullException if argument &#160;is null.">
<polygon fill="#bfbfbf" stroke="black" points="511,-187 511,-206 620,-206 620,-187 511,-187"/>
<text text-anchor="middle" x="565.5" y="-194" font-family="Helvetica,sans-Serif" font-size="10.00">ThrowExceptionIfNull</text>
</a>
</g>
</g>
<!-- Node2 -->
<g id="node2" class="node">
<title>Node2</title>
<g id="a_node2"><a xlink:href="class_f_s_h_f_standard_library_1_1_core_1_1_json_1_1_deserialization.html#a3c9e0776e3358a8aaf3a0f4142e0359e" target="_top" xlink:title="Deserialize jsonString &#160;to T .">
<polygon fill="white" stroke="black" points="282,-372.5 282,-402.5 457,-402.5 457,-372.5 282,-372.5"/>
<text text-anchor="start" x="290" y="-390.5" font-family="Helvetica,sans-Serif" font-size="10.00">FSHFStandardLibrary.Core.</text>
<text text-anchor="middle" x="369.5" y="-379.5" font-family="Helvetica,sans-Serif" font-size="10.00">Json.Deserialization.Deserialize&lt; T &gt;</text>
</a>
</g>
</g>
<!-- Node1&#45;&gt;Node2 -->
<g id="edge1" class="edge">
<title>Node1&#45;&gt;Node2</title>
<path fill="none" stroke="midnightblue" d="M559.69,-216.29C550.02,-251.64 524.77,-325.48 475,-363.5 469.53,-367.68 463.45,-371.15 457.07,-374.04"/>
<polygon fill="midnightblue" stroke="midnightblue" points="563.16,-216.82 562.29,-206.26 556.39,-215.06 563.16,-216.82"/>
</g>
<!-- Node3 -->
<g id="node3" class="node">
<title>Node3</title>
<g id="a_node3"><a xlink:href="class_f_s_h_f_standard_library_1_1_core_1_1_downloader_1_1_specific_1_1_download_result_with_icao_code.html#ad5b7c8c9b5eae6dd5261489fd503d181" target="_top" xlink:title="Constructor of DownloadResult&lt;T&gt;">
<polygon fill="white" stroke="black" points="264,-313 264,-354 475,-354 475,-313 264,-313"/>
<text text-anchor="start" x="272" y="-342" font-family="Helvetica,sans-Serif" font-size="10.00">FSHFStandardLibrary.Core.</text>
<text text-anchor="start" x="272" y="-331" font-family="Helvetica,sans-Serif" font-size="10.00">Downloader.Specific.DownloadResult</text>
<text text-anchor="middle" x="369.5" y="-320" font-family="Helvetica,sans-Serif" font-size="10.00">WithIcaoCode.DownloadResultWithIcaoCode</text>
</a>
</g>
</g>
<!-- Node1&#45;&gt;Node3 -->
<g id="edge2" class="edge">
<title>Node1&#45;&gt;Node3</title>
<path fill="none" stroke="midnightblue" d="M553.93,-214.96C539.27,-238.92 510.5,-280.4 475,-303.5 469.54,-307.05 463.66,-310.19 457.56,-312.96"/>
<polygon fill="midnightblue" stroke="midnightblue" points="557.07,-216.53 559.17,-206.14 551.05,-212.95 557.07,-216.53"/>
</g>
<!-- Node4 -->
<g id="node4" class="node">
<title>Node4</title>
<g id="a_node4"><a xlink:href="class_f_s_h_f_standard_library_1_1_core_1_1_checking_1_1_argument_checking_1_1_icao_code_checking.html#a4118139246b56acb81e810c06930e318" target="_top" xlink:title="Throws InvalidIcaoCodeException, if at least one element of icaoCodes &#160;does not satisfy ICAO airport ...">
<polygon fill="white" stroke="black" points="272,-241.5 272,-293.5 467,-293.5 467,-241.5 272,-241.5"/>
<text text-anchor="start" x="280" y="-281.5" font-family="Helvetica,sans-Serif" font-size="10.00">FSHFStandardLibrary.Core.</text>
<text text-anchor="start" x="280" y="-270.5" font-family="Helvetica,sans-Serif" font-size="10.00">Checking.ArgumentChecking.Icao</text>
<text text-anchor="start" x="280" y="-259.5" font-family="Helvetica,sans-Serif" font-size="10.00">CodeChecking.ThrowExceptionIfContains</text>
<text text-anchor="middle" x="369.5" y="-248.5" font-family="Helvetica,sans-Serif" font-size="10.00">InvalidIcaoCode</text>
</a>
</g>
</g>
<!-- Node1&#45;&gt;Node4 -->
<g id="edge3" class="edge">
<title>Node1&#45;&gt;Node4</title>
<path fill="none" stroke="midnightblue" d="M532.39,-209.95C515.42,-216.93 494.18,-225.44 475,-232.5 466.92,-235.47 458.45,-238.49 449.98,-241.43"/>
<polygon fill="midnightblue" stroke="midnightblue" points="533.93,-213.1 541.84,-206.05 531.26,-206.63 533.93,-213.1"/>
</g>
<!-- Node5 -->
<g id="node5" class="node">
<title>Node5</title>
<g id="a_node5"><a xlink:href="class_f_s_h_f_standard_library_1_1_core_1_1_checking_1_1_argument_checking_1_1_string_argument_checking.html#aaca08bdad889c6ea00c31e3c37eb635e" target="_top" xlink:title="Throws ArgumentException if at least one element of collection &#160;is not a valid string....">
<polygon fill="white" stroke="black" points="272.5,-170.5 272.5,-222.5 466.5,-222.5 466.5,-170.5 272.5,-170.5"/>
<text text-anchor="start" x="280.5" y="-210.5" font-family="Helvetica,sans-Serif" font-size="10.00">FSHFStandardLibrary.Core.</text>
<text text-anchor="start" x="280.5" y="-199.5" font-family="Helvetica,sans-Serif" font-size="10.00">Checking.ArgumentChecking.String</text>
<text text-anchor="start" x="280.5" y="-188.5" font-family="Helvetica,sans-Serif" font-size="10.00">ArgumentChecking.ThrowExceptionIfNull</text>
<text text-anchor="middle" x="369.5" y="-177.5" font-family="Helvetica,sans-Serif" font-size="10.00">OrContainsInvalidString</text>
</a>
</g>
</g>
<!-- Node1&#45;&gt;Node5 -->
<g id="edge4" class="edge">
<title>Node1&#45;&gt;Node5</title>
<path fill="none" stroke="midnightblue" d="M500.71,-196.5C489.78,-196.5 478.21,-196.5 466.66,-196.5"/>
<polygon fill="midnightblue" stroke="midnightblue" points="500.98,-200 510.98,-196.5 500.98,-193 500.98,-200"/>
</g>
<!-- Node6 -->
<g id="node6" class="node">
<title>Node6</title>
<g id="a_node6"><a xlink:href="class_f_s_h_f_standard_library_1_1_core_1_1_checking_1_1_argument_checking_1_1_null_checking.html#acd884eeaf0fa0a92ab34f3e646647868" target="_top" xlink:title="Throws ArgumentNullException if collection &#160;is null or contains null.">
<polygon fill="white" stroke="black" points="282,-132 282,-151 457,-151 457,-132 282,-132"/>
<text text-anchor="middle" x="369.5" y="-139" font-family="Helvetica,sans-Serif" font-size="10.00">ThrowExceptionIfNullOrContainsNull</text>
</a>
</g>
</g>
<!-- Node1&#45;&gt;Node6 -->
<g id="edge5" class="edge">
<title>Node1&#45;&gt;Node6</title>
<path fill="none" stroke="midnightblue" d="M533.74,-182.85C516.69,-175.7 494.97,-167.26 475,-161.5 460.8,-157.4 445.27,-153.91 430.63,-151.05"/>
<polygon fill="midnightblue" stroke="midnightblue" points="532.61,-186.18 543.18,-186.88 535.36,-179.74 532.61,-186.18"/>
</g>
<!-- Node8 -->
<g id="node8" class="node">
<title>Node8</title>
<g id="a_node8"><a xlink:href="class_f_s_h_f_standard_library_1_1_core_1_1_downloader_1_1_general_1_1_url_download_request.html#acef9b3bf3ed4e9692404e66a5b6b13aa" target="_top" xlink:title="URL download request constructor.">
<polygon fill="white" stroke="black" points="289,-72 289,-113 450,-113 450,-72 289,-72"/>
<text text-anchor="start" x="297" y="-101" font-family="Helvetica,sans-Serif" font-size="10.00">FSHFStandardLibrary.Core.</text>
<text text-anchor="start" x="297" y="-90" font-family="Helvetica,sans-Serif" font-size="10.00">Downloader.General.UrlDownload</text>
<text text-anchor="middle" x="369.5" y="-79" font-family="Helvetica,sans-Serif" font-size="10.00">Request.UrlDownloadRequest</text>
</a>
</g>
</g>
<!-- Node1&#45;&gt;Node8 -->
<g id="edge7" class="edge">
<title>Node1&#45;&gt;Node8</title>
<path fill="none" stroke="midnightblue" d="M548.17,-179.38C531.31,-162.64 503.51,-137.53 475,-122.5 467.15,-118.36 458.66,-114.73 450.04,-111.56"/>
<polygon fill="midnightblue" stroke="midnightblue" points="546.01,-182.18 555.52,-186.85 551,-177.27 546.01,-182.18"/>
</g>
<!-- Node9 -->
<g id="node9" class="node">
<title>Node9</title>
<g id="a_node9"><a xlink:href="class_f_s_h_f_standard_library_1_1_core_1_1_downloader_1_1_specific_1_1_url_download_request_with_icao_code.html#a80e0fda81424eca87a35f8c90581afa3" target="_top" xlink:title="URL download request with information about airport ICAO code constructor.">
<polygon fill="white" stroke="black" points="266,-0.5 266,-52.5 473,-52.5 473,-0.5 266,-0.5"/>
<text text-anchor="start" x="274" y="-40.5" font-family="Helvetica,sans-Serif" font-size="10.00">FSHFStandardLibrary.Core.</text>
<text text-anchor="start" x="274" y="-29.5" font-family="Helvetica,sans-Serif" font-size="10.00">Downloader.Specific.UrlDownload</text>
<text text-anchor="start" x="274" y="-18.5" font-family="Helvetica,sans-Serif" font-size="10.00">RequestWithIcaoCode.UrlDownloadRequest</text>
<text text-anchor="middle" x="369.5" y="-7.5" font-family="Helvetica,sans-Serif" font-size="10.00">WithIcaoCode</text>
</a>
</g>
</g>
<!-- Node1&#45;&gt;Node9 -->
<g id="edge8" class="edge">
<title>Node1&#45;&gt;Node9</title>
<path fill="none" stroke="midnightblue" d="M556.62,-177.45C543.73,-148.55 515.45,-93.69 475,-62.5 470.29,-58.87 465.19,-55.59 459.86,-52.63"/>
<polygon fill="midnightblue" stroke="midnightblue" points="553.49,-179.04 560.67,-186.83 559.92,-176.27 553.49,-179.04"/>
</g>
<!-- Node7 -->
<g id="node7" class="node">
<title>Node7</title>
<g id="a_node7"><a xlink:href="class_f_s_h_f_standard_library_1_1_implementations_1_1_downloader_1_1_specific_1_1_standard_url_downloader_with_icao_code.html#a6ecb13d56701e977e69bea9e542cda7c" target="_top" xlink:title="Performs asynchronous downloading by requests at downloadRequests .">
<polygon fill="white" stroke="black" points="0,-121 0,-162 228,-162 228,-121 0,-121"/>
<text text-anchor="start" x="8" y="-150" font-family="Helvetica,sans-Serif" font-size="10.00">FSHFStandardLibrary.Implementations.</text>
<text text-anchor="start" x="8" y="-139" font-family="Helvetica,sans-Serif" font-size="10.00">Downloader.Specific.StandardUrlDownloader</text>
<text text-anchor="middle" x="114" y="-128" font-family="Helvetica,sans-Serif" font-size="10.00">WithIcaoCode.DownloadForManyRequestsAsync</text>
</a>
</g>
</g>
<!-- Node6&#45;&gt;Node7 -->
<g id="edge6" class="edge">
<title>Node6&#45;&gt;Node7</title>
<path fill="none" stroke="midnightblue" d="M271.68,-141.5C257.41,-141.5 242.6,-141.5 228.04,-141.5"/>
<polygon fill="midnightblue" stroke="midnightblue" points="271.97,-145 281.97,-141.5 271.97,-138 271.97,-145"/>
</g>
</g>
</svg>
        <g id="navigator" transform="translate(0 0)" fill="#404254">
                <rect fill="#f2f5e9" fill-opacity="0.5" stroke="#606060" stroke-width=".5" x="0" y="0" width="60" height="60"/>
                <use id="zoomplus" xlink:href="#zoomPlus" x="17" y="9" onmousedown="handleZoom(evt,'in')"/>
                <use id="zoomminus" xlink:href="#zoomMin" x="42" y="9" onmousedown="handleZoom(evt,'out')"/>
                <use id="reset" xlink:href="#resetDef" x="30" y="36" onmousedown="handleReset()"/>
                <g id="arrowUp" xlink:href="#dirArrow" transform="translate(30 24)" onmousedown="handlePan(0,-1)">
                  <use xlink:href="#rim" fill="#404040">
                        <set attributeName="fill" to="#808080" begin="arrowUp.mouseover" end="arrowUp.mouseout"/>
                  </use>
                  <path fill="none" stroke="white" stroke-width="1.5" d="M0,-3.0v7 M-2.5,-0.5L0,-3.0L2.5,-0.5"/>
                </g>
                <g id="arrowRight" xlink:href="#dirArrow" transform="rotate(90) translate(36 -43)" onmousedown="handlePan(1,0)">
                  <use xlink:href="#rim" fill="#404040">
                        <set attributeName="fill" to="#808080" begin="arrowRight.mouseover" end="arrowRight.mouseout"/>
                  </use>
                  <path fill="none" stroke="white" stroke-width="1.5" d="M0,-3.0v7 M-2.5,-0.5L0,-3.0L2.5,-0.5"/>
                </g>
                <g id="arrowDown" xlink:href="#dirArrow" transform="rotate(180) translate(-30 -48)" onmousedown="handlePan(0,1)">
                  <use xlink:href="#rim" fill="#404040">
                        <set attributeName="fill" to="#808080" begin="arrowDown.mouseover" end="arrowDown.mouseout"/>
                  </use>
                  <path fill="none" stroke="white" stroke-width="1.5" d="M0,-3.0v7 M-2.5,-0.5L0,-3.0L2.5,-0.5"/>
                </g>
                <g id="arrowLeft" xlink:href="#dirArrow" transform="rotate(270) translate(-36 17)" onmousedown="handlePan(-1,0)">
                  <use xlink:href="#rim" fill="#404040">
                        <set attributeName="fill" to="#808080" begin="arrowLeft.mouseover" end="arrowLeft.mouseout"/>
                  </use>
                  <path fill="none" stroke="white" stroke-width="1.5" d="M0,-3.0v7 M-2.5,-0.5L0,-3.0L2.5,-0.5"/>
                </g>
        </g>
        <svg viewBox="0 0 15 15" width="100%" height="30px" preserveAspectRatio="xMaxYMin meet">
         <g id="arrow_out" transform="scale(0.3 0.3)">
          <a xlink:href="class_f_s_h_f_standard_library_1_1_core_1_1_checking_1_1_argument_checking_1_1_null_checking_ab7b1938b6a2baac848dae2a322fd5ca1_icgraph_org.svg" target="_base">
           <rect id="button" ry="5" rx="5" y="6" x="6" height="38" width="38"
                fill="#f2f5e9" fill-opacity="0.5" stroke="#606060" stroke-width="1.0"/>
           <path id="arrow"
             d="M 11.500037,31.436501 C 11.940474,20.09759 22.043105,11.32322 32.158766,21.979434 L 37.068811,17.246167 C 37.068811,17.246167 37.088388,32 37.088388,32 L 22.160133,31.978069 C 22.160133,31.978069 26.997745,27.140456 26.997745,27.140456 C 18.528582,18.264221 13.291696,25.230495 11.500037,31.436501 z"
             style="fill:#404040;"/>
          </a>
         </g>
        </svg>
</svg>
