<?xml version="1.0" encoding="UTF-8" standalone="no"?>
<!DOCTYPE svg PUBLIC "-//W3C//DTD SVG 1.1//EN"
 "http://www.w3.org/Graphics/SVG/1.1/DTD/svg11.dtd">
<!-- Generated by graphviz version 2.47.1 (20210421.1823)
 -->
<!-- Title: IsIcaoCodeStringValid Pages: 1 -->
<svg width="462pt" height="88pt"
 viewBox="0.00 0.00 462.00 88.00" xmlns="http://www.w3.org/2000/svg" xmlns:xlink="http://www.w3.org/1999/xlink">
<g id="graph0" class="graph" transform="scale(1 1) rotate(0) translate(4 84)">
<title>IsIcaoCodeStringValid</title>
<polygon fill="white" stroke="transparent" points="-4,4 -4,-84 458,-84 458,4 -4,4"/>
<!-- Node1 -->
<g id="node1" class="node">
<title>Node1</title>
<g id="a_node1"><a xlink:title="Checks whether icaoCode &#160;satisfies airport ICAO code requirements.">
<polygon fill="#bfbfbf" stroke="black" points="341,-30 341,-49 454,-49 454,-30 341,-30"/>
<text text-anchor="middle" x="397.5" y="-37" font-family="Helvetica,sans-Serif" font-size="10.00">IsIcaoCodeStringValid</text>
</a>
</g>
</g>
<!-- Node2 -->
<g id="node2" class="node">
<title>Node2</title>
<g id="a_node2"><a xlink:href="class_f_s_h_f_standard_library_1_1_core_1_1_checking_1_1_argument_checking_1_1_icao_code_checking.html#a983e3804af3c536e2488b45731e9bfb0" target="_top" xlink:title="Throws InvalidIcaoCodeException if icaoCode &#160;does not satisfy ICAO airport code requirements.">
<polygon fill="white" stroke="black" points="172,-24.5 172,-54.5 305,-54.5 305,-24.5 172,-24.5"/>
<text text-anchor="start" x="180" y="-42.5" font-family="Helvetica,sans-Serif" font-size="10.00">ThrowExceptionIfIcaoCode</text>
<text text-anchor="middle" x="238.5" y="-31.5" font-family="Helvetica,sans-Serif" font-size="10.00">IsInvalid</text>
</a>
</g>
</g>
<!-- Node1&#45;&gt;Node2 -->
<g id="edge1" class="edge">
<title>Node1&#45;&gt;Node2</title>
<path fill="none" stroke="midnightblue" d="M330.54,-39.5C322.1,-39.5 313.47,-39.5 305.04,-39.5"/>
<polygon fill="midnightblue" stroke="midnightblue" points="330.71,-43 340.71,-39.5 330.71,-36 330.71,-43"/>
</g>
<!-- Node3 -->
<g id="node3" class="node">
<title>Node3</title>
<g id="a_node3"><a xlink:href="class_f_s_h_f_standard_library_1_1_core_1_1_codes_1_1_icao_code.html#a30fb0259b4890d602270badd9129eb1c" target="_top" xlink:title="Constructor from string.">
<polygon fill="white" stroke="black" points="0,-49.5 0,-79.5 136,-79.5 136,-49.5 0,-49.5"/>
<text text-anchor="start" x="8" y="-67.5" font-family="Helvetica,sans-Serif" font-size="10.00">FSHFStandardLibrary.Core.</text>
<text text-anchor="middle" x="68" y="-56.5" font-family="Helvetica,sans-Serif" font-size="10.00">Codes.IcaoCode.IcaoCode</text>
</a>
</g>
</g>
<!-- Node2&#45;&gt;Node3 -->
<g id="edge2" class="edge">
<title>Node2&#45;&gt;Node3</title>
<path fill="none" stroke="midnightblue" d="M161.87,-50.72C153.29,-51.99 144.58,-53.29 136.12,-54.54"/>
<polygon fill="midnightblue" stroke="midnightblue" points="162.49,-54.17 171.87,-49.24 161.47,-47.24 162.49,-54.17"/>
</g>
<!-- Node4 -->
<g id="node4" class="node">
<title>Node4</title>
<g id="a_node4"><a xlink:href="class_f_s_h_f_standard_library_1_1_core_1_1_checking_1_1_argument_checking_1_1_icao_code_checking.html#a4118139246b56acb81e810c06930e318" target="_top" xlink:title="Throws InvalidIcaoCodeException, if at least one element of icaoCodes &#160;does not satisfy ICAO airport ...">
<polygon fill="white" stroke="black" points="3,-0.5 3,-30.5 133,-30.5 133,-0.5 3,-0.5"/>
<text text-anchor="start" x="11" y="-18.5" font-family="Helvetica,sans-Serif" font-size="10.00">ThrowExceptionIfContains</text>
<text text-anchor="middle" x="68" y="-7.5" font-family="Helvetica,sans-Serif" font-size="10.00">InvalidIcaoCode</text>
</a>
</g>
</g>
<!-- Node2&#45;&gt;Node4 -->
<g id="edge3" class="edge">
<title>Node2&#45;&gt;Node4</title>
<path fill="none" stroke="midnightblue" d="M161.91,-28.73C152.28,-27.36 142.49,-25.97 133.07,-24.63"/>
<polygon fill="midnightblue" stroke="midnightblue" points="161.48,-32.21 171.87,-30.15 162.46,-25.28 161.48,-32.21"/>
</g>
</g>
</svg>
