<?xml version="1.0" encoding="UTF-8" standalone="no"?>
<!DOCTYPE svg PUBLIC "-//W3C//DTD SVG 1.1//EN"
 "http://www.w3.org/Graphics/SVG/1.1/DTD/svg11.dtd">
<!-- Generated by graphviz version 2.47.0 (20210316.2052)
 -->
<!-- Title: DownloadResultWithIcaoCode Pages: 1 -->
<svg width="353pt" height="50pt"
 viewBox="0.00 0.00 353.00 50.00" xmlns="http://www.w3.org/2000/svg" xmlns:xlink="http://www.w3.org/1999/xlink">
<g id="graph0" class="graph" transform="scale(1 1) rotate(0) translate(4 46)">
<title>DownloadResultWithIcaoCode</title>
<polygon fill="white" stroke="transparent" points="-4,4 -4,-46 349,-46 349,4 -4,4"/>
<!-- Node1 -->
<g id="node1" class="node">
<title>Node1</title>
<g id="a_node1"><a xlink:title="Constructor of DownloadResult&lt;T&gt;">
<polygon fill="#bfbfbf" stroke="black" points="0,-11.5 0,-30.5 148,-30.5 148,-11.5 0,-11.5"/>
<text text-anchor="middle" x="74" y="-18.5" font-family="Helvetica,sans-Serif" font-size="10.00">DownloadResultWithIcaoCode</text>
</a>
</g>
</g>
<!-- Node2 -->
<g id="node2" class="node">
<title>Node2</title>
<g id="a_node2"><a xlink:href="class_f_s_h_f_standard_library_1_1_core_1_1_checking_1_1_argument_checking_1_1_null_checking.html#ab7b1938b6a2baac848dae2a322fd5ca1" target="_top" xlink:title="Throws ArgumentNullException if argument &#160;is null.">
<polygon fill="white" stroke="black" points="184,-0.5 184,-41.5 345,-41.5 345,-0.5 184,-0.5"/>
<text text-anchor="start" x="192" y="-29.5" font-family="Helvetica,sans-Serif" font-size="10.00">FSHFStandardLibrary.Core.</text>
<text text-anchor="start" x="192" y="-18.5" font-family="Helvetica,sans-Serif" font-size="10.00">Checking.ArgumentChecking.Null</text>
<text text-anchor="middle" x="264.5" y="-7.5" font-family="Helvetica,sans-Serif" font-size="10.00">Checking.ThrowExceptionIfNull</text>
</a>
</g>
</g>
<!-- Node1&#45;&gt;Node2 -->
<g id="edge1" class="edge">
<title>Node1&#45;&gt;Node2</title>
<path fill="none" stroke="midnightblue" d="M148.15,-21C156.55,-21 165.2,-21 173.79,-21"/>
<polygon fill="midnightblue" stroke="midnightblue" points="173.83,-24.5 183.83,-21 173.83,-17.5 173.83,-24.5"/>
</g>
</g>
</svg>
