<?xml version="1.0" encoding="UTF-8" standalone="no"?>
<!DOCTYPE svg PUBLIC "-//W3C//DTD SVG 1.1//EN"
 "http://www.w3.org/Graphics/SVG/1.1/DTD/svg11.dtd">
<!-- Generated by graphviz version 2.47.0 (20210407.0042)
 -->
<!-- Title: ThrowExceptionIfContainsInvalidString Pages: 1 -->
<svg width="332pt" height="39pt"
 viewBox="0.00 0.00 332.00 39.00" xmlns="http://www.w3.org/2000/svg" xmlns:xlink="http://www.w3.org/1999/xlink">
<g id="graph0" class="graph" transform="scale(1 1) rotate(0) translate(4 35)">
<title>ThrowExceptionIfContainsInvalidString</title>
<polygon fill="white" stroke="transparent" points="-4,4 -4,-35 328,-35 328,4 -4,4"/>
<!-- Node1 -->
<g id="node1" class="node">
<title>Node1</title>
<g id="a_node1"><a xlink:title="Throws ArgumentException, if at least one element of collection &#160;is not a valid string.">
<polygon fill="#bfbfbf" stroke="black" points="194,-0.5 194,-30.5 324,-30.5 324,-0.5 194,-0.5"/>
<text text-anchor="start" x="202" y="-18.5" font-family="Helvetica,sans-Serif" font-size="10.00">ThrowExceptionIfContains</text>
<text text-anchor="middle" x="259" y="-7.5" font-family="Helvetica,sans-Serif" font-size="10.00">InvalidString</text>
</a>
</g>
</g>
<!-- Node2 -->
<g id="node2" class="node">
<title>Node2</title>
<g id="a_node2"><a xlink:href="class_f_s_h_f_standard_library_1_1_core_1_1_checking_1_1_argument_checking_1_1_string_argument_checking.html#aaca08bdad889c6ea00c31e3c37eb635e" target="_top" xlink:title="Throws ArgumentException if at least one element of collection &#160;is not a valid string....">
<polygon fill="white" stroke="black" points="0,-0.5 0,-30.5 158,-30.5 158,-0.5 0,-0.5"/>
<text text-anchor="start" x="8" y="-18.5" font-family="Helvetica,sans-Serif" font-size="10.00">ThrowExceptionIfNullOrContains</text>
<text text-anchor="middle" x="79" y="-7.5" font-family="Helvetica,sans-Serif" font-size="10.00">InvalidString</text>
</a>
</g>
</g>
<!-- Node1&#45;&gt;Node2 -->
<g id="edge1" class="edge">
<title>Node1&#45;&gt;Node2</title>
<path fill="none" stroke="midnightblue" d="M183.74,-15.5C175.25,-15.5 166.57,-15.5 158.03,-15.5"/>
<polygon fill="midnightblue" stroke="midnightblue" points="183.99,-19 193.99,-15.5 183.99,-12 183.99,-19"/>
</g>
</g>
</svg>
