<?xml version="1.0" encoding="UTF-8" standalone="no"?>
<!DOCTYPE svg PUBLIC "-//W3C//DTD SVG 1.1//EN"
 "http://www.w3.org/Graphics/SVG/1.1/DTD/svg11.dtd">
<!-- Generated by graphviz version 2.47.1 (20210421.1823)
 -->
<!-- Title: ThrowExceptionIfIcaoCodeIsInvalid Pages: 1 -->
<svg width="496pt" height="50pt"
 viewBox="0.00 0.00 496.00 50.00" xmlns="http://www.w3.org/2000/svg" xmlns:xlink="http://www.w3.org/1999/xlink">
<g id="graph0" class="graph" transform="scale(1 1) rotate(0) translate(4 46)">
<title>ThrowExceptionIfIcaoCodeIsInvalid</title>
<polygon fill="white" stroke="transparent" points="-4,4 -4,-46 492,-46 492,4 -4,4"/>
<!-- Node1 -->
<g id="node1" class="node">
<title>Node1</title>
<g id="a_node1"><a xlink:title="Throws InvalidIcaoCodeException if icaoCode &#160;does not satisfy ICAO airport code requirements.">
<polygon fill="#bfbfbf" stroke="black" points="0,-6 0,-36 133,-36 133,-6 0,-6"/>
<text text-anchor="start" x="8" y="-24" font-family="Helvetica,sans-Serif" font-size="10.00">ThrowExceptionIfIcaoCode</text>
<text text-anchor="middle" x="66.5" y="-13" font-family="Helvetica,sans-Serif" font-size="10.00">IsInvalid</text>
</a>
</g>
</g>
<!-- Node2 -->
<g id="node2" class="node">
<title>Node2</title>
<g id="a_node2"><a xlink:href="class_f_s_h_f_standard_library_1_1_core_1_1_checking_1_1_argument_checking_1_1_icao_code_checking.html#ae31c9f833349ef252e29e2a6d67d51c1" target="_top" xlink:title="Checks whether icaoCode &#160;satisfies airport ICAO code requirements.">
<polygon fill="white" stroke="black" points="169,-11.5 169,-30.5 282,-30.5 282,-11.5 169,-11.5"/>
<text text-anchor="middle" x="225.5" y="-18.5" font-family="Helvetica,sans-Serif" font-size="10.00">IsIcaoCodeStringValid</text>
</a>
</g>
</g>
<!-- Node1&#45;&gt;Node2 -->
<g id="edge1" class="edge">
<title>Node1&#45;&gt;Node2</title>
<path fill="none" stroke="midnightblue" d="M133.17,-21C141.54,-21 150.1,-21 158.47,-21"/>
<polygon fill="midnightblue" stroke="midnightblue" points="158.55,-24.5 168.55,-21 158.55,-17.5 158.55,-24.5"/>
</g>
<!-- Node3 -->
<g id="node3" class="node">
<title>Node3</title>
<g id="a_node3"><a xlink:href="class_f_s_h_f_standard_library_1_1_core_1_1_checking_1_1_argument_checking_1_1_string_argument_checking.html#ae196462a5b0f3f413e1a07e9d81975fa" target="_top" xlink:title="Checks whether argument &#160;is a valid string (not null, not empty and not only whitespaces)">
<polygon fill="white" stroke="black" points="318,-0.5 318,-41.5 488,-41.5 488,-0.5 318,-0.5"/>
<text text-anchor="start" x="326" y="-29.5" font-family="Helvetica,sans-Serif" font-size="10.00">FSHFStandardLibrary.Core.</text>
<text text-anchor="start" x="326" y="-18.5" font-family="Helvetica,sans-Serif" font-size="10.00">Checking.ArgumentChecking.String</text>
<text text-anchor="middle" x="403" y="-7.5" font-family="Helvetica,sans-Serif" font-size="10.00">ArgumentChecking.IsStringValid</text>
</a>
</g>
</g>
<!-- Node2&#45;&gt;Node3 -->
<g id="edge2" class="edge">
<title>Node2&#45;&gt;Node3</title>
<path fill="none" stroke="midnightblue" d="M282.03,-21C290.35,-21 299.11,-21 307.97,-21"/>
<polygon fill="midnightblue" stroke="midnightblue" points="307.98,-24.5 317.98,-21 307.98,-17.5 307.98,-24.5"/>
</g>
</g>
</svg>
