<?xml version="1.0" encoding="UTF-8" standalone="no"?>
<!DOCTYPE svg PUBLIC "-//W3C//DTD SVG 1.1//EN"
 "http://www.w3.org/Graphics/SVG/1.1/DTD/svg11.dtd">
<!-- Generated by graphviz version 2.47.0 (20210316.2052)
 -->
<!-- Title: Deserialize&lt; T &gt; Pages: 1 -->
<svg width="291pt" height="50pt"
 viewBox="0.00 0.00 291.00 50.00" xmlns="http://www.w3.org/2000/svg" xmlns:xlink="http://www.w3.org/1999/xlink">
<g id="graph0" class="graph" transform="scale(1 1) rotate(0) translate(4 46)">
<title>Deserialize&lt; T &gt;</title>
<polygon fill="white" stroke="transparent" points="-4,4 -4,-46 287,-46 287,4 -4,4"/>
<!-- Node1 -->
<g id="node1" class="node">
<title>Node1</title>
<g id="a_node1"><a xlink:title="Deserialize jsonString &#160;to T .">
<polygon fill="#bfbfbf" stroke="black" points="0,-11.5 0,-30.5 86,-30.5 86,-11.5 0,-11.5"/>
<text text-anchor="middle" x="43" y="-18.5" font-family="Helvetica,sans-Serif" font-size="10.00">Deserialize&lt; T &gt;</text>
</a>
</g>
</g>
<!-- Node2 -->
<g id="node2" class="node">
<title>Node2</title>
<g id="a_node2"><a xlink:href="class_f_s_h_f_standard_library_1_1_core_1_1_checking_1_1_argument_checking_1_1_null_checking.html#ab7b1938b6a2baac848dae2a322fd5ca1" target="_top" xlink:title="Throws ArgumentNullException if argument &#160;is null.">
<polygon fill="white" stroke="black" points="122,-0.5 122,-41.5 283,-41.5 283,-0.5 122,-0.5"/>
<text text-anchor="start" x="130" y="-29.5" font-family="Helvetica,sans-Serif" font-size="10.00">FSHFStandardLibrary.Core.</text>
<text text-anchor="start" x="130" y="-18.5" font-family="Helvetica,sans-Serif" font-size="10.00">Checking.ArgumentChecking.Null</text>
<text text-anchor="middle" x="202.5" y="-7.5" font-family="Helvetica,sans-Serif" font-size="10.00">Checking.ThrowExceptionIfNull</text>
</a>
</g>
</g>
<!-- Node1&#45;&gt;Node2 -->
<g id="edge1" class="edge">
<title>Node1&#45;&gt;Node2</title>
<path fill="none" stroke="midnightblue" d="M86.21,-21C94.22,-21 102.88,-21 111.73,-21"/>
<polygon fill="midnightblue" stroke="midnightblue" points="111.77,-24.5 121.77,-21 111.77,-17.5 111.77,-24.5"/>
</g>
</g>
</svg>
