<?xml version="1.0" encoding="UTF-8" standalone="no"?>
<!DOCTYPE svg PUBLIC "-//W3C//DTD SVG 1.1//EN"
 "http://www.w3.org/Graphics/SVG/1.1/DTD/svg11.dtd">
<!-- Generated by graphviz version 2.47.0 (20210316.2052)
 -->
<!-- Title: DownloadForManyRequestsAsync Pages: 1 -->
<svg width="624pt" height="50pt"
 viewBox="0.00 0.00 624.00 50.00" xmlns="http://www.w3.org/2000/svg" xmlns:xlink="http://www.w3.org/1999/xlink">
<g id="graph0" class="graph" transform="scale(1 1) rotate(0) translate(4 46)">
<title>DownloadForManyRequestsAsync</title>
<polygon fill="white" stroke="transparent" points="-4,4 -4,-46 620,-46 620,4 -4,4"/>
<!-- Node1 -->
<g id="node1" class="node">
<title>Node1</title>
<g id="a_node1"><a xlink:title="Performs asynchronous downloading by requests at downloadRequests .">
<polygon fill="#bfbfbf" stroke="black" points="0,-11.5 0,-30.5 165,-30.5 165,-11.5 0,-11.5"/>
<text text-anchor="middle" x="82.5" y="-18.5" font-family="Helvetica,sans-Serif" font-size="10.00">DownloadForManyRequestsAsync</text>
</a>
</g>
</g>
<!-- Node2 -->
<g id="node2" class="node">
<title>Node2</title>
<g id="a_node2"><a xlink:href="class_f_s_h_f_standard_library_1_1_core_1_1_checking_1_1_argument_checking_1_1_null_checking.html#a268755b9b7aec45de9bb7f81ffa19637" target="_top" xlink:title="Throws ArgumentNullException if collection &#160;is null or contains null.">
<polygon fill="white" stroke="black" points="201,-0.5 201,-41.5 419,-41.5 419,-0.5 201,-0.5"/>
<text text-anchor="start" x="209" y="-29.5" font-family="Helvetica,sans-Serif" font-size="10.00">FSHFStandardLibrary.Core.</text>
<text text-anchor="start" x="209" y="-18.5" font-family="Helvetica,sans-Serif" font-size="10.00">Checking.ArgumentChecking.Null</text>
<text text-anchor="middle" x="310" y="-7.5" font-family="Helvetica,sans-Serif" font-size="10.00">Checking.ThrowExceptionIfNullOrContainsNull</text>
</a>
</g>
</g>
<!-- Node1&#45;&gt;Node2 -->
<g id="edge1" class="edge">
<title>Node1&#45;&gt;Node2</title>
<path fill="none" stroke="midnightblue" d="M165.23,-21C173.56,-21 182.14,-21 190.77,-21"/>
<polygon fill="midnightblue" stroke="midnightblue" points="190.9,-24.5 200.9,-21 190.9,-17.5 190.9,-24.5"/>
</g>
<!-- Node3 -->
<g id="node3" class="node">
<title>Node3</title>
<g id="a_node3"><a xlink:href="class_f_s_h_f_standard_library_1_1_core_1_1_checking_1_1_argument_checking_1_1_null_checking.html#ab7b1938b6a2baac848dae2a322fd5ca1" target="_top" xlink:title="Throws ArgumentNullException if argument &#160;is null.">
<polygon fill="white" stroke="black" points="455,-0.5 455,-41.5 616,-41.5 616,-0.5 455,-0.5"/>
<text text-anchor="start" x="463" y="-29.5" font-family="Helvetica,sans-Serif" font-size="10.00">FSHFStandardLibrary.Core.</text>
<text text-anchor="start" x="463" y="-18.5" font-family="Helvetica,sans-Serif" font-size="10.00">Checking.ArgumentChecking.Null</text>
<text text-anchor="middle" x="535.5" y="-7.5" font-family="Helvetica,sans-Serif" font-size="10.00">Checking.ThrowExceptionIfNull</text>
</a>
</g>
</g>
<!-- Node2&#45;&gt;Node3 -->
<g id="edge2" class="edge">
<title>Node2&#45;&gt;Node3</title>
<path fill="none" stroke="midnightblue" d="M419.15,-21C427.7,-21 436.29,-21 444.7,-21"/>
<polygon fill="midnightblue" stroke="midnightblue" points="444.86,-24.5 454.86,-21 444.86,-17.5 444.86,-24.5"/>
</g>
</g>
</svg>
