<?xml version="1.0" encoding="UTF-8" standalone="no"?>
<!DOCTYPE svg PUBLIC "-//W3C//DTD SVG 1.1//EN"
 "http://www.w3.org/Graphics/SVG/1.1/DTD/svg11.dtd">
<!-- Generated by graphviz version 2.47.0 (20210405.1944)
 -->
<!-- Title: UrlDownloadRequestWithIcaoCode Pages: 1 -->
<svg width="236pt" height="84pt"
 viewBox="0.00 0.00 236.00 84.00" xmlns="http://www.w3.org/2000/svg" xmlns:xlink="http://www.w3.org/1999/xlink">
<g id="graph0" class="graph" transform="scale(1 1) rotate(0) translate(4 80)">
<title>UrlDownloadRequestWithIcaoCode</title>
<polygon fill="white" stroke="transparent" points="-4,4 -4,-80 232,-80 232,4 -4,4"/>
<!-- Node1 -->
<g id="node1" class="node">
<title>Node1</title>
<g id="a_node1"><a xlink:title="Request for downloading data by URL. Request contains airport ICAO code IcaoCode.">
<polygon fill="#bfbfbf" stroke="black" points="30.5,-0.5 30.5,-19.5 199.5,-19.5 199.5,-0.5 30.5,-0.5"/>
<text text-anchor="middle" x="115" y="-7.5" font-family="Helvetica,sans-Serif" font-size="10.00">UrlDownloadRequestWithIcaoCode</text>
</a>
</g>
</g>
<!-- Node2 -->
<g id="node2" class="node">
<title>Node2</title>
<g id="a_node2"><a xlink:href="class_f_s_h_f_standard_library_1_1_core_1_1_downloader_1_1_general_1_1_url_download_request.html" target="_top" xlink:title="Request for downloading data by URL.">
<polygon fill="white" stroke="black" points="0,-56.5 0,-75.5 108,-75.5 108,-56.5 0,-56.5"/>
<text text-anchor="middle" x="54" y="-63.5" font-family="Helvetica,sans-Serif" font-size="10.00">UrlDownloadRequest</text>
</a>
</g>
</g>
<!-- Node2&#45;&gt;Node1 -->
<g id="edge1" class="edge">
<title>Node2&#45;&gt;Node1</title>
<path fill="none" stroke="midnightblue" d="M71.47,-49.54C82.34,-39.91 95.94,-27.87 105.02,-19.83"/>
<polygon fill="midnightblue" stroke="midnightblue" points="68.97,-47.07 63.8,-56.32 73.61,-52.32 68.97,-47.07"/>
</g>
<!-- Node3 -->
<g id="node3" class="node">
<title>Node3</title>
<g id="a_node3"><a xlink:href="interface_f_s_h_f_standard_library_1_1_core_1_1_codes_1_1_i_icao_code_container.html" target="_top" xlink:title="Interface of a class, that contains IcaoCode for representing airport ICAO code.">
<polygon fill="white" stroke="black" points="126,-56.5 126,-75.5 228,-75.5 228,-56.5 126,-56.5"/>
<text text-anchor="middle" x="177" y="-63.5" font-family="Helvetica,sans-Serif" font-size="10.00">IIcaoCodeContainer</text>
</a>
</g>
</g>
<!-- Node3&#45;&gt;Node1 -->
<g id="edge2" class="edge">
<title>Node3&#45;&gt;Node1</title>
<path fill="none" stroke="midnightblue" d="M159.25,-49.54C148.19,-39.91 134.37,-27.87 125.14,-19.83"/>
<polygon fill="midnightblue" stroke="midnightblue" points="157.2,-52.4 167.04,-56.32 161.8,-47.12 157.2,-52.4"/>
</g>
</g>
</svg>
