<?xml version="1.0" encoding="UTF-8" standalone="no"?>
<!DOCTYPE svg PUBLIC "-//W3C//DTD SVG 1.1//EN"
 "http://www.w3.org/Graphics/SVG/1.1/DTD/svg11.dtd">
<!-- Generated by graphviz version 2.47.0 (20210405.1944)
 -->
<!-- Title: DownloadResultWithIcaoCode&lt; T &gt; Pages: 1 -->
<svg width="238pt" height="84pt"
 viewBox="0.00 0.00 238.00 84.00" xmlns="http://www.w3.org/2000/svg" xmlns:xlink="http://www.w3.org/1999/xlink">
<g id="graph0" class="graph" transform="scale(1 1) rotate(0) translate(4 80)">
<title>DownloadResultWithIcaoCode&lt; T &gt;</title>
<polygon fill="white" stroke="transparent" points="-4,4 -4,-80 234,-80 234,4 -4,4"/>
<!-- Node1 -->
<g id="node1" class="node">
<title>Node1</title>
<g id="a_node1"><a xlink:title="Class representing the result of downloading data of type T .">
<polygon fill="#bfbfbf" stroke="black" points="32,-0.5 32,-19.5 202,-19.5 202,-0.5 32,-0.5"/>
<text text-anchor="middle" x="117" y="-7.5" font-family="Helvetica,sans-Serif" font-size="10.00">DownloadResultWithIcaoCode&lt; T &gt;</text>
</a>
</g>
</g>
<!-- Node2 -->
<g id="node2" class="node">
<title>Node2</title>
<g id="a_node2"><a xlink:href="class_f_s_h_f_standard_library_1_1_core_1_1_downloader_1_1_general_1_1_download_result.html" target="_top" xlink:title="Class representing the result of downloading data of type T .">
<polygon fill="white" stroke="black" points="0,-56.5 0,-75.5 110,-75.5 110,-56.5 0,-56.5"/>
<text text-anchor="middle" x="55" y="-63.5" font-family="Helvetica,sans-Serif" font-size="10.00">DownloadResult&lt; T &gt;</text>
</a>
</g>
</g>
<!-- Node2&#45;&gt;Node1 -->
<g id="edge1" class="edge">
<title>Node2&#45;&gt;Node1</title>
<path fill="none" stroke="midnightblue" d="M72.75,-49.54C83.81,-39.91 97.63,-27.87 106.86,-19.83"/>
<polygon fill="midnightblue" stroke="midnightblue" points="70.2,-47.12 64.96,-56.32 74.8,-52.4 70.2,-47.12"/>
</g>
<!-- Node3 -->
<g id="node3" class="node">
<title>Node3</title>
<g id="a_node3"><a xlink:href="interface_f_s_h_f_standard_library_1_1_core_1_1_codes_1_1_i_icao_code_container.html" target="_top" xlink:title="Interface of a class, that contains IcaoCode for representing airport ICAO code.">
<polygon fill="white" stroke="black" points="128,-56.5 128,-75.5 230,-75.5 230,-56.5 128,-56.5"/>
<text text-anchor="middle" x="179" y="-63.5" font-family="Helvetica,sans-Serif" font-size="10.00">IIcaoCodeContainer</text>
</a>
</g>
</g>
<!-- Node3&#45;&gt;Node1 -->
<g id="edge2" class="edge">
<title>Node3&#45;&gt;Node1</title>
<path fill="none" stroke="midnightblue" d="M161.25,-49.54C150.19,-39.91 136.37,-27.87 127.14,-19.83"/>
<polygon fill="midnightblue" stroke="midnightblue" points="159.2,-52.4 169.04,-56.32 163.8,-47.12 159.2,-52.4"/>
</g>
</g>
</svg>
