<?xml version="1.0" encoding="UTF-8" standalone="no"?>
<!DOCTYPE svg PUBLIC "-//W3C//DTD SVG 1.1//EN"
 "http://www.w3.org/Graphics/SVG/1.1/DTD/svg11.dtd">
<!-- Generated by graphviz version 2.47.0 (20210407.0042)
 -->
<!-- Title: IcaoCode Pages: 1 -->
<svg width="721pt" height="61pt"
 viewBox="0.00 0.00 721.00 61.00" xmlns="http://www.w3.org/2000/svg" xmlns:xlink="http://www.w3.org/1999/xlink">
<g id="graph0" class="graph" transform="scale(1 1) rotate(0) translate(4 57)">
<title>IcaoCode</title>
<polygon fill="white" stroke="transparent" points="-4,4 -4,-57 717,-57 717,4 -4,4"/>
<!-- Node1 -->
<g id="node1" class="node">
<title>Node1</title>
<g id="a_node1"><a xlink:title="Constructor from string.">
<polygon fill="#bfbfbf" stroke="black" points="0,-17 0,-36 58,-36 58,-17 0,-17"/>
<text text-anchor="middle" x="29" y="-24" font-family="Helvetica,sans-Serif" font-size="10.00">IcaoCode</text>
</a>
</g>
</g>
<!-- Node2 -->
<g id="node2" class="node">
<title>Node2</title>
<g id="a_node2"><a xlink:href="class_f_s_h_f_standard_library_1_1_core_1_1_checking_1_1_argument_checking_1_1_icao_code_checking.html#a983e3804af3c536e2488b45731e9bfb0" target="_top" xlink:title="Throws InvalidIcaoCodeException if icaoCode &#160;does not satisfy ICAO airport code requirements.">
<polygon fill="white" stroke="black" points="94,-0.5 94,-52.5 292,-52.5 292,-0.5 94,-0.5"/>
<text text-anchor="start" x="102" y="-40.5" font-family="Helvetica,sans-Serif" font-size="10.00">FSHFStandardLibrary.Core.</text>
<text text-anchor="start" x="102" y="-29.5" font-family="Helvetica,sans-Serif" font-size="10.00">Checking.ArgumentChecking.Icao</text>
<text text-anchor="start" x="102" y="-18.5" font-family="Helvetica,sans-Serif" font-size="10.00">CodeChecking.ThrowExceptionIfIcaoCode</text>
<text text-anchor="middle" x="193" y="-7.5" font-family="Helvetica,sans-Serif" font-size="10.00">IsInvalid</text>
</a>
</g>
</g>
<!-- Node1&#45;&gt;Node2 -->
<g id="edge1" class="edge">
<title>Node1&#45;&gt;Node2</title>
<path fill="none" stroke="midnightblue" d="M58.22,-26.5C65.81,-26.5 74.49,-26.5 83.71,-26.5"/>
<polygon fill="midnightblue" stroke="midnightblue" points="83.9,-30 93.9,-26.5 83.9,-23 83.9,-30"/>
</g>
<!-- Node3 -->
<g id="node3" class="node">
<title>Node3</title>
<g id="a_node3"><a xlink:href="class_f_s_h_f_standard_library_1_1_core_1_1_checking_1_1_argument_checking_1_1_icao_code_checking.html#ae31c9f833349ef252e29e2a6d67d51c1" target="_top" xlink:title="Checks whether icaoCode &#160;satisfies airport ICAO code requirements.">
<polygon fill="white" stroke="black" points="328,-6 328,-47 507,-47 507,-6 328,-6"/>
<text text-anchor="start" x="336" y="-35" font-family="Helvetica,sans-Serif" font-size="10.00">FSHFStandardLibrary.Core.</text>
<text text-anchor="start" x="336" y="-24" font-family="Helvetica,sans-Serif" font-size="10.00">Checking.ArgumentChecking.Icao</text>
<text text-anchor="middle" x="417.5" y="-13" font-family="Helvetica,sans-Serif" font-size="10.00">CodeChecking.IsIcaoCodeStringValid</text>
</a>
</g>
</g>
<!-- Node2&#45;&gt;Node3 -->
<g id="edge2" class="edge">
<title>Node2&#45;&gt;Node3</title>
<path fill="none" stroke="midnightblue" d="M292.24,-26.5C300.68,-26.5 309.22,-26.5 317.67,-26.5"/>
<polygon fill="midnightblue" stroke="midnightblue" points="317.91,-30 327.91,-26.5 317.91,-23 317.91,-30"/>
</g>
<!-- Node4 -->
<g id="node4" class="node">
<title>Node4</title>
<g id="a_node4"><a xlink:href="class_f_s_h_f_standard_library_1_1_core_1_1_checking_1_1_argument_checking_1_1_string_argument_checking.html#ae196462a5b0f3f413e1a07e9d81975fa" target="_top" xlink:title="Checks whether argument &#160;is a valid string (not null, not empty and not only whitespaces)">
<polygon fill="white" stroke="black" points="543,-6 543,-47 713,-47 713,-6 543,-6"/>
<text text-anchor="start" x="551" y="-35" font-family="Helvetica,sans-Serif" font-size="10.00">FSHFStandardLibrary.Core.</text>
<text text-anchor="start" x="551" y="-24" font-family="Helvetica,sans-Serif" font-size="10.00">Checking.ArgumentChecking.String</text>
<text text-anchor="middle" x="628" y="-13" font-family="Helvetica,sans-Serif" font-size="10.00">ArgumentChecking.IsStringValid</text>
</a>
</g>
</g>
<!-- Node3&#45;&gt;Node4 -->
<g id="edge3" class="edge">
<title>Node3&#45;&gt;Node4</title>
<path fill="none" stroke="midnightblue" d="M507.23,-26.5C515.75,-26.5 524.41,-26.5 532.99,-26.5"/>
<polygon fill="midnightblue" stroke="midnightblue" points="532.99,-30 542.99,-26.5 532.99,-23 532.99,-30"/>
</g>
</g>
</svg>
