<?xml version="1.0" encoding="UTF-8" standalone="no"?>
<!DOCTYPE svg PUBLIC "-//W3C//DTD SVG 1.1//EN"
 "http://www.w3.org/Graphics/SVG/1.1/DTD/svg11.dtd">
<!-- Generated by graphviz version 2.47.0 (20210316.2052)
 -->
<!-- Title: IsIcaoCodeStringValid Pages: 1 -->
<svg width="327pt" height="50pt"
 viewBox="0.00 0.00 327.00 50.00" xmlns="http://www.w3.org/2000/svg" xmlns:xlink="http://www.w3.org/1999/xlink">
<g id="graph0" class="graph" transform="scale(1 1) rotate(0) translate(4 46)">
<title>IsIcaoCodeStringValid</title>
<polygon fill="white" stroke="transparent" points="-4,4 -4,-46 323,-46 323,4 -4,4"/>
<!-- Node1 -->
<g id="node1" class="node">
<title>Node1</title>
<g id="a_node1"><a xlink:title="Checks whether icaoCode &#160;satisfies airport ICAO code requirements.">
<polygon fill="#bfbfbf" stroke="black" points="0,-11.5 0,-30.5 113,-30.5 113,-11.5 0,-11.5"/>
<text text-anchor="middle" x="56.5" y="-18.5" font-family="Helvetica,sans-Serif" font-size="10.00">IsIcaoCodeStringValid</text>
</a>
</g>
</g>
<!-- Node2 -->
<g id="node2" class="node">
<title>Node2</title>
<g id="a_node2"><a xlink:href="class_f_s_h_f_standard_library_1_1_core_1_1_checking_1_1_argument_checking_1_1_string_argument_checking.html#ae196462a5b0f3f413e1a07e9d81975fa" target="_top" xlink:title="Checks whether argument &#160;is a valid string (not null, not empty and not only whitespaces)">
<polygon fill="white" stroke="black" points="149,-0.5 149,-41.5 319,-41.5 319,-0.5 149,-0.5"/>
<text text-anchor="start" x="157" y="-29.5" font-family="Helvetica,sans-Serif" font-size="10.00">FSHFStandardLibrary.Core.</text>
<text text-anchor="start" x="157" y="-18.5" font-family="Helvetica,sans-Serif" font-size="10.00">Checking.ArgumentChecking.String</text>
<text text-anchor="middle" x="234" y="-7.5" font-family="Helvetica,sans-Serif" font-size="10.00">ArgumentChecking.IsStringValid</text>
</a>
</g>
</g>
<!-- Node1&#45;&gt;Node2 -->
<g id="edge1" class="edge">
<title>Node1&#45;&gt;Node2</title>
<path fill="none" stroke="midnightblue" d="M113.03,-21C121.35,-21 130.11,-21 138.97,-21"/>
<polygon fill="midnightblue" stroke="midnightblue" points="138.98,-24.5 148.98,-21 138.98,-17.5 138.98,-24.5"/>
</g>
</g>
</svg>
