<?xml version="1.0" encoding="UTF-8" standalone="no"?>
<!DOCTYPE svg PUBLIC "-//W3C//DTD SVG 1.1//EN"
 "http://www.w3.org/Graphics/SVG/1.1/DTD/svg11.dtd">
<!-- Generated by graphviz version 2.47.0 (20210407.0042)
 -->
<!-- Title: ThrowExceptionIfContainsInvalidIcaoCode Pages: 1 -->
<svg width="690pt" height="104pt"
 viewBox="0.00 0.00 690.00 104.00" xmlns="http://www.w3.org/2000/svg" xmlns:xlink="http://www.w3.org/1999/xlink">
<g id="graph0" class="graph" transform="scale(1 1) rotate(0) translate(4 100)">
<title>ThrowExceptionIfContainsInvalidIcaoCode</title>
<polygon fill="white" stroke="transparent" points="-4,4 -4,-100 686,-100 686,4 -4,4"/>
<!-- Node1 -->
<g id="node1" class="node">
<title>Node1</title>
<g id="a_node1"><a xlink:title="Throws InvalidIcaoCodeException, if at least one element of icaoCodes &#160;does not satisfy ICAO airport ...">
<polygon fill="#bfbfbf" stroke="black" points="0,-33 0,-63 130,-63 130,-33 0,-33"/>
<text text-anchor="start" x="8" y="-51" font-family="Helvetica,sans-Serif" font-size="10.00">ThrowExceptionIfContains</text>
<text text-anchor="middle" x="65" y="-40" font-family="Helvetica,sans-Serif" font-size="10.00">InvalidIcaoCode</text>
</a>
</g>
</g>
<!-- Node2 -->
<g id="node2" class="node">
<title>Node2</title>
<g id="a_node2"><a xlink:href="class_f_s_h_f_standard_library_1_1_core_1_1_checking_1_1_argument_checking_1_1_icao_code_checking.html#a983e3804af3c536e2488b45731e9bfb0" target="_top" xlink:title="Throws InvalidIcaoCodeException if icaoCode &#160;does not satisfy ICAO airport code requirements.">
<polygon fill="white" stroke="black" points="180,-60 180,-90 313,-90 313,-60 180,-60"/>
<text text-anchor="start" x="188" y="-78" font-family="Helvetica,sans-Serif" font-size="10.00">ThrowExceptionIfIcaoCode</text>
<text text-anchor="middle" x="246.5" y="-67" font-family="Helvetica,sans-Serif" font-size="10.00">IsInvalid</text>
</a>
</g>
</g>
<!-- Node1&#45;&gt;Node2 -->
<g id="edge1" class="edge">
<title>Node1&#45;&gt;Node2</title>
<path fill="none" stroke="midnightblue" d="M130.04,-57.63C142.96,-59.58 156.65,-61.64 169.92,-63.63"/>
<polygon fill="midnightblue" stroke="midnightblue" points="169.56,-67.12 179.97,-65.14 170.6,-60.19 169.56,-67.12"/>
</g>
<!-- Node5 -->
<g id="node5" class="node">
<title>Node5</title>
<g id="a_node5"><a xlink:href="class_f_s_h_f_standard_library_1_1_core_1_1_checking_1_1_argument_checking_1_1_null_checking.html#ab7b1938b6a2baac848dae2a322fd5ca1" target="_top" xlink:title="Throws ArgumentNullException if argument &#160;is null.">
<polygon fill="white" stroke="black" points="166,-0.5 166,-41.5 327,-41.5 327,-0.5 166,-0.5"/>
<text text-anchor="start" x="174" y="-29.5" font-family="Helvetica,sans-Serif" font-size="10.00">FSHFStandardLibrary.Core.</text>
<text text-anchor="start" x="174" y="-18.5" font-family="Helvetica,sans-Serif" font-size="10.00">Checking.ArgumentChecking.Null</text>
<text text-anchor="middle" x="246.5" y="-7.5" font-family="Helvetica,sans-Serif" font-size="10.00">Checking.ThrowExceptionIfNull</text>
</a>
</g>
</g>
<!-- Node1&#45;&gt;Node5 -->
<g id="edge4" class="edge">
<title>Node1&#45;&gt;Node5</title>
<path fill="none" stroke="midnightblue" d="M130.04,-38.37C138.37,-37.11 147.01,-35.81 155.65,-34.51"/>
<polygon fill="midnightblue" stroke="midnightblue" points="156.42,-37.94 165.79,-32.99 155.38,-31.02 156.42,-37.94"/>
</g>
<!-- Node3 -->
<g id="node3" class="node">
<title>Node3</title>
<g id="a_node3"><a xlink:href="class_f_s_h_f_standard_library_1_1_core_1_1_checking_1_1_argument_checking_1_1_icao_code_checking.html#ae31c9f833349ef252e29e2a6d67d51c1" target="_top" xlink:title="Checks whether icaoCode &#160;satisfies airport ICAO code requirements.">
<polygon fill="white" stroke="black" points="363,-65.5 363,-84.5 476,-84.5 476,-65.5 363,-65.5"/>
<text text-anchor="middle" x="419.5" y="-72.5" font-family="Helvetica,sans-Serif" font-size="10.00">IsIcaoCodeStringValid</text>
</a>
</g>
</g>
<!-- Node2&#45;&gt;Node3 -->
<g id="edge2" class="edge">
<title>Node2&#45;&gt;Node3</title>
<path fill="none" stroke="midnightblue" d="M313.12,-75C326.06,-75 339.63,-75 352.57,-75"/>
<polygon fill="midnightblue" stroke="midnightblue" points="352.79,-78.5 362.79,-75 352.79,-71.5 352.79,-78.5"/>
</g>
<!-- Node4 -->
<g id="node4" class="node">
<title>Node4</title>
<g id="a_node4"><a xlink:href="class_f_s_h_f_standard_library_1_1_core_1_1_checking_1_1_argument_checking_1_1_string_argument_checking.html#ae196462a5b0f3f413e1a07e9d81975fa" target="_top" xlink:title="Checks whether argument &#160;is a valid string (not null, not empty and not only whitespaces)">
<polygon fill="white" stroke="black" points="512,-54.5 512,-95.5 682,-95.5 682,-54.5 512,-54.5"/>
<text text-anchor="start" x="520" y="-83.5" font-family="Helvetica,sans-Serif" font-size="10.00">FSHFStandardLibrary.Core.</text>
<text text-anchor="start" x="520" y="-72.5" font-family="Helvetica,sans-Serif" font-size="10.00">Checking.ArgumentChecking.String</text>
<text text-anchor="middle" x="597" y="-61.5" font-family="Helvetica,sans-Serif" font-size="10.00">ArgumentChecking.IsStringValid</text>
</a>
</g>
</g>
<!-- Node3&#45;&gt;Node4 -->
<g id="edge3" class="edge">
<title>Node3&#45;&gt;Node4</title>
<path fill="none" stroke="midnightblue" d="M476.03,-75C484.35,-75 493.11,-75 501.97,-75"/>
<polygon fill="midnightblue" stroke="midnightblue" points="501.98,-78.5 511.98,-75 501.98,-71.5 501.98,-78.5"/>
</g>
</g>
</svg>
