<?xml version="1.0" encoding="UTF-8" standalone="no"?>
<!DOCTYPE svg PUBLIC "-//W3C//DTD SVG 1.1//EN"
 "http://www.w3.org/Graphics/SVG/1.1/DTD/svg11.dtd">
<!-- Generated by graphviz version 2.47.0 (20210407.0042)
 -->
<!-- Title: ThrowExceptionIfNullOrContainsInvalidString Pages: 1 -->
<svg width="471pt" height="99pt"
 viewBox="0.00 0.00 471.00 98.50" xmlns="http://www.w3.org/2000/svg" xmlns:xlink="http://www.w3.org/1999/xlink">
<g id="graph0" class="graph" transform="scale(1 1) rotate(0) translate(4 94.5)">
<title>ThrowExceptionIfNullOrContainsInvalidString</title>
<polygon fill="white" stroke="transparent" points="-4,4 -4,-94.5 467,-94.5 467,4 -4,4"/>
<!-- Node1 -->
<g id="node1" class="node">
<title>Node1</title>
<g id="a_node1"><a xlink:title="Throws ArgumentException if at least one element of collection &#160;is not a valid string....">
<polygon fill="#bfbfbf" stroke="black" points="0,-33 0,-63 158,-63 158,-33 0,-33"/>
<text text-anchor="start" x="8" y="-51" font-family="Helvetica,sans-Serif" font-size="10.00">ThrowExceptionIfNullOrContains</text>
<text text-anchor="middle" x="79" y="-40" font-family="Helvetica,sans-Serif" font-size="10.00">InvalidString</text>
</a>
</g>
</g>
<!-- Node2 -->
<g id="node2" class="node">
<title>Node2</title>
<g id="a_node2"><a xlink:href="class_f_s_h_f_standard_library_1_1_core_1_1_checking_1_1_argument_checking_1_1_string_argument_checking.html#a317a6ed9b6c3e64afe4052955a72b402" target="_top" xlink:title="Throws ArgumentException, if at least one element of collection &#160;is not a valid string.">
<polygon fill="white" stroke="black" points="209.5,-60 209.5,-90 339.5,-90 339.5,-60 209.5,-60"/>
<text text-anchor="start" x="217.5" y="-78" font-family="Helvetica,sans-Serif" font-size="10.00">ThrowExceptionIfContains</text>
<text text-anchor="middle" x="274.5" y="-67" font-family="Helvetica,sans-Serif" font-size="10.00">InvalidString</text>
</a>
</g>
</g>
<!-- Node1&#45;&gt;Node2 -->
<g id="edge1" class="edge">
<title>Node1&#45;&gt;Node2</title>
<path fill="none" stroke="midnightblue" d="M158.15,-58.9C171.69,-60.79 185.73,-62.75 199.17,-64.63"/>
<polygon fill="midnightblue" stroke="midnightblue" points="198.92,-68.13 209.3,-66.04 199.88,-61.19 198.92,-68.13"/>
</g>
<!-- Node4 -->
<g id="node4" class="node">
<title>Node4</title>
<g id="a_node4"><a xlink:href="class_f_s_h_f_standard_library_1_1_core_1_1_checking_1_1_argument_checking_1_1_null_checking.html#ab7b1938b6a2baac848dae2a322fd5ca1" target="_top" xlink:title="Throws ArgumentNullException if argument &#160;is null.">
<polygon fill="white" stroke="black" points="194,-0.5 194,-41.5 355,-41.5 355,-0.5 194,-0.5"/>
<text text-anchor="start" x="202" y="-29.5" font-family="Helvetica,sans-Serif" font-size="10.00">FSHFStandardLibrary.Core.</text>
<text text-anchor="start" x="202" y="-18.5" font-family="Helvetica,sans-Serif" font-size="10.00">Checking.ArgumentChecking.Null</text>
<text text-anchor="middle" x="274.5" y="-7.5" font-family="Helvetica,sans-Serif" font-size="10.00">Checking.ThrowExceptionIfNull</text>
</a>
</g>
</g>
<!-- Node1&#45;&gt;Node4 -->
<g id="edge3" class="edge">
<title>Node1&#45;&gt;Node4</title>
<path fill="none" stroke="midnightblue" d="M158.15,-37.1C166.59,-35.92 175.23,-34.71 183.8,-33.52"/>
<polygon fill="midnightblue" stroke="midnightblue" points="184.38,-36.97 193.8,-32.12 183.41,-30.04 184.38,-36.97"/>
</g>
<!-- Node3 -->
<g id="node3" class="node">
<title>Node3</title>
<g id="a_node3"><a xlink:href="class_f_s_h_f_standard_library_1_1_core_1_1_checking_1_1_argument_checking_1_1_string_argument_checking.html#ae196462a5b0f3f413e1a07e9d81975fa" target="_top" xlink:title="Checks whether argument &#160;is a valid string (not null, not empty and not only whitespaces)">
<polygon fill="white" stroke="black" points="391,-65.5 391,-84.5 463,-84.5 463,-65.5 391,-65.5"/>
<text text-anchor="middle" x="427" y="-72.5" font-family="Helvetica,sans-Serif" font-size="10.00">IsStringValid</text>
</a>
</g>
</g>
<!-- Node2&#45;&gt;Node3 -->
<g id="edge2" class="edge">
<title>Node2&#45;&gt;Node3</title>
<path fill="none" stroke="midnightblue" d="M339.76,-75C353.63,-75 368.01,-75 380.96,-75"/>
<polygon fill="midnightblue" stroke="midnightblue" points="381,-78.5 391,-75 381,-71.5 381,-78.5"/>
</g>
</g>
</svg>
