<?xml version="1.0" encoding="UTF-8" standalone="no"?>
<!DOCTYPE svg PUBLIC "-//W3C//DTD SVG 1.1//EN"
 "http://www.w3.org/Graphics/SVG/1.1/DTD/svg11.dtd">
<!-- Generated by graphviz version 2.47.1 (20210421.1823)
 -->
<!-- Title: StandardUrlDownloaderWithIcaoCode Pages: 1 -->
<svg width="735pt" height="62pt"
 viewBox="0.00 0.00 735.00 62.00" xmlns="http://www.w3.org/2000/svg" xmlns:xlink="http://www.w3.org/1999/xlink">
<g id="graph0" class="graph" transform="scale(1 1) rotate(0) translate(4 58)">
<title>StandardUrlDownloaderWithIcaoCode</title>
<polygon fill="white" stroke="transparent" points="-4,4 -4,-58 731,-58 731,4 -4,4"/>
<!-- Node1 -->
<g id="node1" class="node">
<title>Node1</title>
<g id="a_node1"><a xlink:title="Standard implementation of downloader by UrlDownloadRequestWithIcaoCode.">
<polygon fill="#bfbfbf" stroke="black" points="588,-6 588,-36 727,-36 727,-6 588,-6"/>
<text text-anchor="start" x="596" y="-24" font-family="Helvetica,sans-Serif" font-size="10.00">StandardUrlDownloaderWith</text>
<text text-anchor="middle" x="657.5" y="-13" font-family="Helvetica,sans-Serif" font-size="10.00">IcaoCode</text>
</a>
</g>
</g>
<!-- Node2 -->
<g id="node2" class="node">
<title>Node2</title>
<g id="a_node2"><a xlink:href="interface_f_s_h_f_standard_library_1_1_core_1_1_downloader_1_1_general_1_1_i_downloader.html" target="_top" xlink:title=" ">
<polygon fill="white" stroke="black" points="372,-0.5 372,-41.5 551,-41.5 551,-0.5 372,-0.5"/>
<text text-anchor="start" x="380" y="-29.5" font-family="Helvetica,sans-Serif" font-size="10.00">IDownloader&lt; DownloadResult</text>
<text text-anchor="start" x="380" y="-18.5" font-family="Helvetica,sans-Serif" font-size="10.00">WithIcaoCode&lt; string &gt;,</text>
<text text-anchor="middle" x="461.5" y="-7.5" font-family="Helvetica,sans-Serif" font-size="10.00"> UrlDownloadRequestWithIcaoCode &gt;</text>
</a>
</g>
</g>
<!-- Node2&#45;&gt;Node1 -->
<g id="edge1" class="edge">
<title>Node2&#45;&gt;Node1</title>
<path fill="none" stroke="midnightblue" d="M561.36,-21C570.3,-21 579.22,-21 587.82,-21"/>
<polygon fill="midnightblue" stroke="midnightblue" points="561.27,-17.5 551.27,-21 561.27,-24.5 561.27,-17.5"/>
</g>
<!-- Node3 -->
<g id="node3" class="node">
<title>Node3</title>
<g id="a_node3"><a xlink:href="interface_f_s_h_f_standard_library_1_1_core_1_1_downloader_1_1_general_1_1_i_downloader.html" target="_top" xlink:title="Interface of class, that can asynchronously download data of type TDownloadResultType &#160;by collection ...">
<polygon fill="white" stroke="black" points="0,-6 0,-36 176,-36 176,-6 0,-6"/>
<text text-anchor="start" x="8" y="-24" font-family="Helvetica,sans-Serif" font-size="10.00">IDownloader&lt; TDownloadResult</text>
<text text-anchor="middle" x="88" y="-13" font-family="Helvetica,sans-Serif" font-size="10.00">Type, in in TDownloadRequestType &gt;</text>
</a>
</g>
</g>
<!-- Node3&#45;&gt;Node2 -->
<g id="edge2" class="edge">
<title>Node3&#45;&gt;Node2</title>
<path fill="none" stroke="orange" stroke-dasharray="5,2" d="M186.28,-21C243.69,-21 315.82,-21 371.69,-21"/>
<polygon fill="orange" stroke="orange" points="186.1,-17.5 176.1,-21 186.1,-24.5 186.1,-17.5"/>
<text text-anchor="start" x="194" y="-46" font-family="Helvetica,sans-Serif" font-size="10.00"> &lt; DownloadResultWithIcao</text>
<text text-anchor="start" x="194" y="-35" font-family="Helvetica,sans-Serif" font-size="10.00">Code&lt; string &gt;, UrlDownloadRequest</text>
<text text-anchor="middle" x="274" y="-24" font-family="Helvetica,sans-Serif" font-size="10.00">WithIcaoCode &gt;</text>
</g>
</g>
</svg>
