<?xml version="1.0" encoding="UTF-8" standalone="no"?>
<!DOCTYPE svg PUBLIC "-//W3C//DTD SVG 1.1//EN"
 "http://www.w3.org/Graphics/SVG/1.1/DTD/svg11.dtd">
<!-- Generated by graphviz version 2.47.0 (20210316.2052)
 -->
<!-- Title: IsStringValid Pages: 1 -->
<svg width="760pt" height="177pt"
 viewBox="0.00 0.00 760.00 177.00" xmlns="http://www.w3.org/2000/svg" xmlns:xlink="http://www.w3.org/1999/xlink">
<g id="graph0" class="graph" transform="scale(1 1) rotate(0) translate(4 173)">
<title>IsStringValid</title>
<polygon fill="white" stroke="transparent" points="-4,4 -4,-173 756,-173 756,4 -4,4"/>
<!-- Node1 -->
<g id="node1" class="node">
<title>Node1</title>
<g id="a_node1"><a xlink:title="Checks whether argument &#160;is a valid string (not null, not empty and not only whitespaces)">
<polygon fill="#bfbfbf" stroke="black" points="680,-55 680,-74 752,-74 752,-55 680,-55"/>
<text text-anchor="middle" x="716" y="-62" font-family="Helvetica,sans-Serif" font-size="10.00">IsStringValid</text>
</a>
</g>
</g>
<!-- Node2 -->
<g id="node2" class="node">
<title>Node2</title>
<g id="a_node2"><a xlink:href="class_f_s_h_f_standard_library_1_1_core_1_1_checking_1_1_argument_checking_1_1_icao_code_checking.html#ae31c9f833349ef252e29e2a6d67d51c1" target="_top" xlink:title="Checks whether icaoCode &#160;satisfies airport ICAO code requirements.">
<polygon fill="white" stroke="black" points="465,-101 465,-142 644,-142 644,-101 465,-101"/>
<text text-anchor="start" x="473" y="-130" font-family="Helvetica,sans-Serif" font-size="10.00">FSHFStandardLibrary.Core.</text>
<text text-anchor="start" x="473" y="-119" font-family="Helvetica,sans-Serif" font-size="10.00">Checking.ArgumentChecking.Icao</text>
<text text-anchor="middle" x="554.5" y="-108" font-family="Helvetica,sans-Serif" font-size="10.00">CodeChecking.IsIcaoCodeStringValid</text>
</a>
</g>
</g>
<!-- Node1&#45;&gt;Node2 -->
<g id="edge1" class="edge">
<title>Node1&#45;&gt;Node2</title>
<path fill="none" stroke="midnightblue" d="M678.65,-77.49C659.27,-84.42 634.97,-93.1 613.09,-100.92"/>
<polygon fill="midnightblue" stroke="midnightblue" points="680.06,-80.7 688.3,-74.04 677.71,-74.11 680.06,-80.7"/>
</g>
<!-- Node6 -->
<g id="node6" class="node">
<title>Node6</title>
<g id="a_node6"><a xlink:href="class_f_s_h_f_standard_library_1_1_core_1_1_checking_1_1_argument_checking_1_1_string_argument_checking.html#a317a6ed9b6c3e64afe4052955a72b402" target="_top" xlink:title="Throws ArgumentException, if at least one element of collection &#160;is not a valid string.">
<polygon fill="white" stroke="black" points="489.5,-49.5 489.5,-79.5 619.5,-79.5 619.5,-49.5 489.5,-49.5"/>
<text text-anchor="start" x="497.5" y="-67.5" font-family="Helvetica,sans-Serif" font-size="10.00">ThrowExceptionIfContains</text>
<text text-anchor="middle" x="554.5" y="-56.5" font-family="Helvetica,sans-Serif" font-size="10.00">InvalidString</text>
</a>
</g>
</g>
<!-- Node1&#45;&gt;Node6 -->
<g id="edge5" class="edge">
<title>Node1&#45;&gt;Node6</title>
<path fill="none" stroke="midnightblue" d="M669.62,-64.5C654.08,-64.5 636.39,-64.5 619.65,-64.5"/>
<polygon fill="midnightblue" stroke="midnightblue" points="670,-68 680,-64.5 670,-61 670,-68"/>
</g>
<!-- Node8 -->
<g id="node8" class="node">
<title>Node8</title>
<g id="a_node8"><a xlink:href="class_f_s_h_f_standard_library_1_1_core_1_1_checking_1_1_argument_checking_1_1_string_argument_checking.html#a859ec69bfc312061b7873b7148b77d86" target="_top" xlink:title="Throws ArgumentException if argument &#160;is not a valid string.">
<polygon fill="white" stroke="black" points="492,-0.5 492,-30.5 617,-30.5 617,-0.5 492,-0.5"/>
<text text-anchor="start" x="500" y="-18.5" font-family="Helvetica,sans-Serif" font-size="10.00">ThrowExceptionIfStringIs</text>
<text text-anchor="middle" x="554.5" y="-7.5" font-family="Helvetica,sans-Serif" font-size="10.00">Invalid</text>
</a>
</g>
</g>
<!-- Node1&#45;&gt;Node8 -->
<g id="edge7" class="edge">
<title>Node1&#45;&gt;Node8</title>
<path fill="none" stroke="midnightblue" d="M679.63,-51.47C668.31,-47.45 655.68,-43.13 644,-39.5 634.12,-36.43 623.55,-33.36 613.28,-30.51"/>
<polygon fill="midnightblue" stroke="midnightblue" points="678.59,-54.81 689.19,-54.9 680.96,-48.23 678.59,-54.81"/>
</g>
<!-- Node3 -->
<g id="node3" class="node">
<title>Node3</title>
<g id="a_node3"><a xlink:href="class_f_s_h_f_standard_library_1_1_core_1_1_checking_1_1_argument_checking_1_1_icao_code_checking.html#a983e3804af3c536e2488b45731e9bfb0" target="_top" xlink:title="Throws InvalidIcaoCodeException if icaoCode &#160;does not satisfy ICAO airport code requirements.">
<polygon fill="white" stroke="black" points="231,-97.5 231,-149.5 429,-149.5 429,-97.5 231,-97.5"/>
<text text-anchor="start" x="239" y="-137.5" font-family="Helvetica,sans-Serif" font-size="10.00">FSHFStandardLibrary.Core.</text>
<text text-anchor="start" x="239" y="-126.5" font-family="Helvetica,sans-Serif" font-size="10.00">Checking.ArgumentChecking.Icao</text>
<text text-anchor="start" x="239" y="-115.5" font-family="Helvetica,sans-Serif" font-size="10.00">CodeChecking.ThrowExceptionIfIcaoCode</text>
<text text-anchor="middle" x="330" y="-104.5" font-family="Helvetica,sans-Serif" font-size="10.00">IsInvalid</text>
</a>
</g>
</g>
<!-- Node2&#45;&gt;Node3 -->
<g id="edge2" class="edge">
<title>Node2&#45;&gt;Node3</title>
<path fill="none" stroke="midnightblue" d="M454.65,-122.39C446.18,-122.46 437.62,-122.54 429.15,-122.62"/>
<polygon fill="midnightblue" stroke="midnightblue" points="454.95,-125.89 464.92,-122.3 454.89,-118.89 454.95,-125.89"/>
</g>
<!-- Node4 -->
<g id="node4" class="node">
<title>Node4</title>
<g id="a_node4"><a xlink:href="class_f_s_h_f_standard_library_1_1_core_1_1_codes_1_1_icao_code.html#a30fb0259b4890d602270badd9129eb1c" target="_top" xlink:title="Constructor from string.">
<polygon fill="white" stroke="black" points="29.5,-138.5 29.5,-168.5 165.5,-168.5 165.5,-138.5 29.5,-138.5"/>
<text text-anchor="start" x="37.5" y="-156.5" font-family="Helvetica,sans-Serif" font-size="10.00">FSHFStandardLibrary.Core.</text>
<text text-anchor="middle" x="97.5" y="-145.5" font-family="Helvetica,sans-Serif" font-size="10.00">Codes.IcaoCode.IcaoCode</text>
</a>
</g>
</g>
<!-- Node3&#45;&gt;Node4 -->
<g id="edge3" class="edge">
<title>Node3&#45;&gt;Node4</title>
<path fill="none" stroke="midnightblue" d="M220.78,-137.58C201.93,-140.04 182.83,-142.52 165.5,-144.78"/>
<polygon fill="midnightblue" stroke="midnightblue" points="221.45,-141.03 230.91,-136.27 220.54,-134.09 221.45,-141.03"/>
</g>
<!-- Node5 -->
<g id="node5" class="node">
<title>Node5</title>
<g id="a_node5"><a xlink:href="class_f_s_h_f_standard_library_1_1_core_1_1_checking_1_1_argument_checking_1_1_icao_code_checking.html#a4118139246b56acb81e810c06930e318" target="_top" xlink:title="Throws InvalidIcaoCodeException, if at least one element of icaoCodes &#160;does not satisfy ICAO airport ...">
<polygon fill="white" stroke="black" points="0,-67.5 0,-119.5 195,-119.5 195,-67.5 0,-67.5"/>
<text text-anchor="start" x="8" y="-107.5" font-family="Helvetica,sans-Serif" font-size="10.00">FSHFStandardLibrary.Core.</text>
<text text-anchor="start" x="8" y="-96.5" font-family="Helvetica,sans-Serif" font-size="10.00">Checking.ArgumentChecking.Icao</text>
<text text-anchor="start" x="8" y="-85.5" font-family="Helvetica,sans-Serif" font-size="10.00">CodeChecking.ThrowExceptionIfContains</text>
<text text-anchor="middle" x="97.5" y="-74.5" font-family="Helvetica,sans-Serif" font-size="10.00">InvalidIcaoCode</text>
</a>
</g>
</g>
<!-- Node3&#45;&gt;Node5 -->
<g id="edge4" class="edge">
<title>Node3&#45;&gt;Node5</title>
<path fill="none" stroke="midnightblue" d="M220.84,-109.42C212.22,-108.3 203.56,-107.17 195.03,-106.06"/>
<polygon fill="midnightblue" stroke="midnightblue" points="220.54,-112.91 230.91,-110.73 221.45,-105.97 220.54,-112.91"/>
</g>
<!-- Node7 -->
<g id="node7" class="node">
<title>Node7</title>
<g id="a_node7"><a xlink:href="class_f_s_h_f_standard_library_1_1_core_1_1_checking_1_1_argument_checking_1_1_string_argument_checking.html#aaca08bdad889c6ea00c31e3c37eb635e" target="_top" xlink:title="Throws ArgumentException if at least one element of collection &#160;is not a valid string....">
<polygon fill="white" stroke="black" points="251,-48.5 251,-78.5 409,-78.5 409,-48.5 251,-48.5"/>
<text text-anchor="start" x="259" y="-66.5" font-family="Helvetica,sans-Serif" font-size="10.00">ThrowExceptionIfNullOrContains</text>
<text text-anchor="middle" x="330" y="-55.5" font-family="Helvetica,sans-Serif" font-size="10.00">InvalidString</text>
</a>
</g>
</g>
<!-- Node6&#45;&gt;Node7 -->
<g id="edge6" class="edge">
<title>Node6&#45;&gt;Node7</title>
<path fill="none" stroke="midnightblue" d="M479.28,-64.17C456.77,-64.07 431.97,-63.95 409.21,-63.85"/>
<polygon fill="midnightblue" stroke="midnightblue" points="479.43,-67.67 489.44,-64.21 479.46,-60.67 479.43,-67.67"/>
</g>
</g>
</svg>
