<?xml version="1.0" encoding="UTF-8" standalone="no"?>
<!DOCTYPE svg PUBLIC "-//W3C//DTD SVG 1.1//EN"
 "http://www.w3.org/Graphics/SVG/1.1/DTD/svg11.dtd">
<!-- Generated by graphviz version 2.47.0 (20210316.2052)
 -->
<!-- Title: ThrowExceptionIfNullOrContainsNull Pages: 1 -->
<svg width="447pt" height="50pt"
 viewBox="0.00 0.00 447.00 50.00" xmlns="http://www.w3.org/2000/svg" xmlns:xlink="http://www.w3.org/1999/xlink">
<g id="graph0" class="graph" transform="scale(1 1) rotate(0) translate(4 46)">
<title>ThrowExceptionIfNullOrContainsNull</title>
<polygon fill="white" stroke="transparent" points="-4,4 -4,-46 443,-46 443,4 -4,4"/>
<!-- Node1 -->
<g id="node1" class="node">
<title>Node1</title>
<g id="a_node1"><a xlink:title="Throws ArgumentNullException if collection &#160;is null or contains null.">
<polygon fill="#bfbfbf" stroke="black" points="264,-11.5 264,-30.5 439,-30.5 439,-11.5 264,-11.5"/>
<text text-anchor="middle" x="351.5" y="-18.5" font-family="Helvetica,sans-Serif" font-size="10.00">ThrowExceptionIfNullOrContainsNull</text>
</a>
</g>
</g>
<!-- Node2 -->
<g id="node2" class="node">
<title>Node2</title>
<g id="a_node2"><a xlink:href="class_f_s_h_f_standard_library_1_1_implementations_1_1_downloader_1_1_specific_1_1_standard_url_downloader_with_icao_code.html#a6ecb13d56701e977e69bea9e542cda7c" target="_top" xlink:title="Performs asynchronous downloading by requests at downloadRequests .">
<polygon fill="white" stroke="black" points="0,-0.5 0,-41.5 228,-41.5 228,-0.5 0,-0.5"/>
<text text-anchor="start" x="8" y="-29.5" font-family="Helvetica,sans-Serif" font-size="10.00">FSHFStandardLibrary.Implementations.</text>
<text text-anchor="start" x="8" y="-18.5" font-family="Helvetica,sans-Serif" font-size="10.00">Downloader.Specific.StandardUrlDownloader</text>
<text text-anchor="middle" x="114" y="-7.5" font-family="Helvetica,sans-Serif" font-size="10.00">WithIcaoCode.DownloadForManyRequestsAsync</text>
</a>
</g>
</g>
<!-- Node1&#45;&gt;Node2 -->
<g id="edge1" class="edge">
<title>Node1&#45;&gt;Node2</title>
<path fill="none" stroke="midnightblue" d="M253.71,-21C245.36,-21 236.86,-21 228.39,-21"/>
<polygon fill="midnightblue" stroke="midnightblue" points="253.81,-24.5 263.81,-21 253.81,-17.5 253.81,-24.5"/>
</g>
</g>
</svg>
