<?xml version="1.0" encoding="UTF-8" standalone="no"?>
<!DOCTYPE svg PUBLIC "-//W3C//DTD SVG 1.1//EN"
 "http://www.w3.org/Graphics/SVG/1.1/DTD/svg11.dtd">
<!-- Generated by graphviz version 2.47.1 (20210421.1823)
 -->
<!-- Title: StandardUrlDownloader Pages: 1 -->
<svg width="210pt" height="185pt"
 viewBox="0.00 0.00 210.00 185.00" xmlns="http://www.w3.org/2000/svg" xmlns:xlink="http://www.w3.org/1999/xlink">
<g id="graph0" class="graph" transform="scale(1 1) rotate(0) translate(4 181)">
<title>StandardUrlDownloader</title>
<polygon fill="white" stroke="transparent" points="-4,4 -4,-181 206,-181 206,4 -4,4"/>
<!-- Node1 -->
<g id="node1" class="node">
<title>Node1</title>
<g id="a_node1"><a xlink:title="Standard implementation of downloader by UrlDownloadRequest.">
<polygon fill="#bfbfbf" stroke="black" points="28.5,-0.5 28.5,-19.5 147.5,-19.5 147.5,-0.5 28.5,-0.5"/>
<text text-anchor="middle" x="88" y="-7.5" font-family="Helvetica,sans-Serif" font-size="10.00">StandardUrlDownloader</text>
</a>
</g>
</g>
<!-- Node2 -->
<g id="node2" class="node">
<title>Node2</title>
<g id="a_node2"><a xlink:href="interface_f_s_h_f_standard_library_1_1_core_1_1_downloader_1_1_general_1_1_i_downloader.html" target="_top" xlink:title=" ">
<polygon fill="white" stroke="black" points="7,-57.5 7,-87.5 169,-87.5 169,-57.5 7,-57.5"/>
<text text-anchor="start" x="15" y="-75.5" font-family="Helvetica,sans-Serif" font-size="10.00">IDownloader&lt; DownloadResult</text>
<text text-anchor="middle" x="88" y="-64.5" font-family="Helvetica,sans-Serif" font-size="10.00">&lt; string &gt;, UrlDownloadRequest &gt;</text>
</a>
</g>
</g>
<!-- Node2&#45;&gt;Node1 -->
<g id="edge1" class="edge">
<title>Node2&#45;&gt;Node1</title>
<path fill="none" stroke="midnightblue" d="M88,-47.35C88,-37.51 88,-26.78 88,-19.54"/>
<polygon fill="midnightblue" stroke="midnightblue" points="84.5,-47.47 88,-57.47 91.5,-47.47 84.5,-47.47"/>
</g>
<!-- Node3 -->
<g id="node3" class="node">
<title>Node3</title>
<g id="a_node3"><a xlink:href="interface_f_s_h_f_standard_library_1_1_core_1_1_downloader_1_1_general_1_1_i_downloader.html" target="_top" xlink:title="Interface of class, that can asynchronously download data of type TDownloadResultType &#160;by collection ...">
<polygon fill="white" stroke="black" points="0,-146.5 0,-176.5 176,-176.5 176,-146.5 0,-146.5"/>
<text text-anchor="start" x="8" y="-164.5" font-family="Helvetica,sans-Serif" font-size="10.00">IDownloader&lt; TDownloadResult</text>
<text text-anchor="middle" x="88" y="-153.5" font-family="Helvetica,sans-Serif" font-size="10.00">Type, in in TDownloadRequestType &gt;</text>
</a>
</g>
</g>
<!-- Node3&#45;&gt;Node2 -->
<g id="edge2" class="edge">
<title>Node3&#45;&gt;Node2</title>
<path fill="none" stroke="orange" stroke-dasharray="5,2" d="M88,-136.09C88,-120.44 88,-100.68 88,-87.6"/>
<polygon fill="orange" stroke="orange" points="84.5,-136.13 88,-146.13 91.5,-136.13 84.5,-136.13"/>
<text text-anchor="start" x="88" y="-120" font-family="Helvetica,sans-Serif" font-size="10.00"> &lt; DownloadResult&lt; string</text>
<text text-anchor="middle" x="145" y="-109" font-family="Helvetica,sans-Serif" font-size="10.00"> &gt;, UrlDownloadRequest &gt;</text>
</g>
</g>
</svg>
