<?xml version="1.0" encoding="UTF-8" standalone="no"?>
<!DOCTYPE svg PUBLIC "-//W3C//DTD SVG 1.1//EN"
 "http://www.w3.org/Graphics/SVG/1.1/DTD/svg11.dtd">
<!-- Generated by graphviz version 2.47.0 (20210407.0042)
 -->
<!-- Title: StandardUrlDownloaderWithIcaoCode Pages: 1 -->
<svg width="716pt" height="62pt"
 viewBox="0.00 0.00 716.00 62.00" xmlns="http://www.w3.org/2000/svg" xmlns:xlink="http://www.w3.org/1999/xlink">
<g id="graph0" class="graph" transform="scale(1 1) rotate(0) translate(4 58)">
<title>StandardUrlDownloaderWithIcaoCode</title>
<polygon fill="white" stroke="transparent" points="-4,4 -4,-58 712,-58 712,4 -4,4"/>
<!-- Node1 -->
<g id="node1" class="node">
<title>Node1</title>
<g id="a_node1"><a xlink:title="Standard implementation of downloader by UrlDownloadRequestWithIcaoCode.">
<polygon fill="#bfbfbf" stroke="black" points="569,-6 569,-36 708,-36 708,-6 569,-6"/>
<text text-anchor="start" x="577" y="-24" font-family="Helvetica,sans-Serif" font-size="10.00">StandardUrlDownloaderWith</text>
<text text-anchor="middle" x="638.5" y="-13" font-family="Helvetica,sans-Serif" font-size="10.00">IcaoCode</text>
</a>
</g>
</g>
<!-- Node2 -->
<g id="node2" class="node">
<title>Node2</title>
<g id="a_node2"><a xlink:href="interface_f_s_h_f_standard_library_1_1_core_1_1_downloader_1_1_general_1_1_i_downloader.html" target="_top" xlink:title=" ">
<polygon fill="white" stroke="black" points="353,-0.5 353,-41.5 532,-41.5 532,-0.5 353,-0.5"/>
<text text-anchor="start" x="361" y="-29.5" font-family="Helvetica,sans-Serif" font-size="10.00">IDownloader&lt; DownloadResult</text>
<text text-anchor="start" x="361" y="-18.5" font-family="Helvetica,sans-Serif" font-size="10.00">WithIcaoCode&lt; string &gt;,</text>
<text text-anchor="middle" x="442.5" y="-7.5" font-family="Helvetica,sans-Serif" font-size="10.00"> UrlDownloadRequestWithIcaoCode &gt;</text>
</a>
</g>
</g>
<!-- Node2&#45;&gt;Node1 -->
<g id="edge1" class="edge">
<title>Node2&#45;&gt;Node1</title>
<path fill="none" stroke="midnightblue" d="M542.36,-21C551.3,-21 560.22,-21 568.82,-21"/>
<polygon fill="midnightblue" stroke="midnightblue" points="542.27,-17.5 532.27,-21 542.27,-24.5 542.27,-17.5"/>
</g>
<!-- Node3 -->
<g id="node3" class="node">
<title>Node3</title>
<g id="a_node3"><a xlink:href="interface_f_s_h_f_standard_library_1_1_core_1_1_downloader_1_1_general_1_1_i_downloader.html" target="_top" xlink:title="Interface of class, that can asynchronously download data of type TDownloadResultType &#160;by collection ...">
<polygon fill="white" stroke="black" points="0,-6 0,-36 157,-36 157,-6 0,-6"/>
<text text-anchor="start" x="8" y="-24" font-family="Helvetica,sans-Serif" font-size="10.00">IDownloader&lt; TDownloadResult</text>
<text text-anchor="middle" x="78.5" y="-13" font-family="Helvetica,sans-Serif" font-size="10.00">Type, TDownloadRequestType &gt;</text>
</a>
</g>
</g>
<!-- Node3&#45;&gt;Node2 -->
<g id="edge2" class="edge">
<title>Node3&#45;&gt;Node2</title>
<path fill="none" stroke="orange" stroke-dasharray="5,2" d="M167.46,-21C223.72,-21 296.44,-21 352.83,-21"/>
<polygon fill="orange" stroke="orange" points="167.16,-17.5 157.16,-21 167.16,-24.5 167.16,-17.5"/>
<text text-anchor="start" x="175" y="-46" font-family="Helvetica,sans-Serif" font-size="10.00"> &lt; DownloadResultWithIcao</text>
<text text-anchor="start" x="175" y="-35" font-family="Helvetica,sans-Serif" font-size="10.00">Code&lt; string &gt;, UrlDownloadRequest</text>
<text text-anchor="middle" x="255" y="-24" font-family="Helvetica,sans-Serif" font-size="10.00">WithIcaoCode &gt;</text>
</g>
</g>
</svg>
