<?xml version="1.0" encoding="UTF-8" standalone="no"?>
<!DOCTYPE svg PUBLIC "-//W3C//DTD SVG 1.1//EN"
 "http://www.w3.org/Graphics/SVG/1.1/DTD/svg11.dtd">
<!-- Generated by graphviz version 2.47.0 (20210405.1944)
 -->
<!-- Title: Graphical Class Hierarchy Pages: 1 -->
<svg width="324pt" height="104pt"
 viewBox="0.00 0.00 324.00 104.00" xmlns="http://www.w3.org/2000/svg" xmlns:xlink="http://www.w3.org/1999/xlink">
<g id="graph0" class="graph" transform="scale(1 1) rotate(0) translate(4 100)">
<title>Graphical Class Hierarchy</title>
<polygon fill="white" stroke="transparent" points="-4,4 -4,-100 320,-100 320,4 -4,4"/>
<!-- Node0 -->
<g id="node1" class="node">
<title>Node0</title>
<g id="a_node1"><a xlink:href="class_f_s_h_f_standard_library_1_1_core_1_1_downloader_1_1_general_1_1_download_result.html" target="_top" xlink:title="Class representing the result of downloading data of type T .">
<polygon fill="white" stroke="black" points="0,-76.5 0,-95.5 110,-95.5 110,-76.5 0,-76.5"/>
<text text-anchor="middle" x="55" y="-83.5" font-family="Helvetica,sans-Serif" font-size="10.00">DownloadResult&lt; T &gt;</text>
</a>
</g>
</g>
<!-- Node1 -->
<g id="node2" class="node">
<title>Node1</title>
<g id="a_node2"><a xlink:href="class_f_s_h_f_standard_library_1_1_core_1_1_downloader_1_1_specific_1_1_download_result_with_icao_code.html" target="_top" xlink:title="Class representing the result of downloading data of type T .">
<polygon fill="white" stroke="black" points="146,-57.5 146,-76.5 316,-76.5 316,-57.5 146,-57.5"/>
<text text-anchor="middle" x="231" y="-64.5" font-family="Helvetica,sans-Serif" font-size="10.00">DownloadResultWithIcaoCode&lt; T &gt;</text>
</a>
</g>
</g>
<!-- Node0&#45;&gt;Node1 -->
<g id="edge1" class="edge">
<title>Node0&#45;&gt;Node1</title>
<path fill="none" stroke="midnightblue" d="M120.16,-78.99C128.55,-78.08 137.25,-77.13 145.9,-76.18"/>
<polygon fill="midnightblue" stroke="midnightblue" points="119.66,-75.53 110.1,-80.09 120.42,-82.49 119.66,-75.53"/>
</g>
<!-- Node15 -->
<g id="node3" class="node">
<title>Node15</title>
<g id="a_node3"><a xlink:href="interface_f_s_h_f_standard_library_1_1_core_1_1_codes_1_1_i_icao_code_container.html" target="_top" xlink:title="Interface of a class, that contains IcaoCode for representing airport ICAO code.">
<polygon fill="white" stroke="black" points="4,-38.5 4,-57.5 106,-57.5 106,-38.5 4,-38.5"/>
<text text-anchor="middle" x="55" y="-45.5" font-family="Helvetica,sans-Serif" font-size="10.00">IIcaoCodeContainer</text>
</a>
</g>
</g>
<!-- Node15&#45;&gt;Node1 -->
<g id="edge2" class="edge">
<title>Node15&#45;&gt;Node1</title>
<path fill="none" stroke="midnightblue" d="M116.4,-54.6C125.87,-55.63 135.8,-56.71 145.69,-57.79"/>
<polygon fill="midnightblue" stroke="midnightblue" points="116.65,-51.1 106.33,-53.5 115.89,-58.06 116.65,-51.1"/>
</g>
<!-- Node16 -->
<g id="node4" class="node">
<title>Node16</title>
<g id="a_node4"><a xlink:href="class_f_s_h_f_standard_library_1_1_core_1_1_downloader_1_1_specific_1_1_url_download_request_with_icao_code.html" target="_top" xlink:title="Request for downloading data by URL. Request contains airport ICAO code IcaoCode.">
<polygon fill="white" stroke="black" points="146.5,-10.5 146.5,-29.5 315.5,-29.5 315.5,-10.5 146.5,-10.5"/>
<text text-anchor="middle" x="231" y="-17.5" font-family="Helvetica,sans-Serif" font-size="10.00">UrlDownloadRequestWithIcaoCode</text>
</a>
</g>
</g>
<!-- Node15&#45;&gt;Node16 -->
<g id="edge3" class="edge">
<title>Node15&#45;&gt;Node16</title>
<path fill="none" stroke="midnightblue" d="M116.49,-38.27C134.11,-35.43 153.34,-32.34 170.87,-29.51"/>
<polygon fill="midnightblue" stroke="midnightblue" points="115.64,-34.86 106.33,-39.9 116.76,-41.77 115.64,-34.86"/>
</g>
<!-- Node20 -->
<g id="node5" class="node">
<title>Node20</title>
<g id="a_node5"><a xlink:href="class_f_s_h_f_standard_library_1_1_core_1_1_downloader_1_1_general_1_1_url_download_request.html" target="_top" xlink:title="Request for downloading data by URL.">
<polygon fill="white" stroke="black" points="1,-0.5 1,-19.5 109,-19.5 109,-0.5 1,-0.5"/>
<text text-anchor="middle" x="55" y="-7.5" font-family="Helvetica,sans-Serif" font-size="10.00">UrlDownloadRequest</text>
</a>
</g>
</g>
<!-- Node20&#45;&gt;Node16 -->
<g id="edge4" class="edge">
<title>Node20&#45;&gt;Node16</title>
<path fill="none" stroke="midnightblue" d="M119.31,-13.64C128.12,-14.15 137.29,-14.67 146.4,-15.2"/>
<polygon fill="midnightblue" stroke="midnightblue" points="119.34,-10.13 109.15,-13.05 118.93,-17.12 119.34,-10.13"/>
</g>
</g>
</svg>
