<?xml version="1.0" encoding="UTF-8" standalone="no"?>
<!DOCTYPE svg PUBLIC "-//W3C//DTD SVG 1.1//EN"
 "http://www.w3.org/Graphics/SVG/1.1/DTD/svg11.dtd">
<!-- Generated by graphviz version 2.47.0 (20210316.2052)
 -->
<!-- Title: IDownloader&lt; TDownloadResultType, TDownloadRequestType &gt; Pages: 1 -->
<svg width="716pt" height="102pt"
 viewBox="0.00 0.00 716.00 101.50" xmlns="http://www.w3.org/2000/svg" xmlns:xlink="http://www.w3.org/1999/xlink">
<g id="graph0" class="graph" transform="scale(1 1) rotate(0) translate(4 97.5)">
<title>IDownloader&lt; TDownloadResultType, TDownloadRequestType &gt;</title>
<polygon fill="white" stroke="transparent" points="-4,4 -4,-97.5 712,-97.5 712,4 -4,4"/>
<!-- Node1 -->
<g id="node1" class="node">
<title>Node1</title>
<g id="a_node1"><a xlink:title="Interface of class, that can asynchronously download data of type TDownloadResultType &#160;by collection ...">
<polygon fill="#bfbfbf" stroke="black" points="0,-26.5 0,-56.5 157,-56.5 157,-26.5 0,-26.5"/>
<text text-anchor="start" x="8" y="-44.5" font-family="Helvetica,sans-Serif" font-size="10.00">IDownloader&lt; TDownloadResult</text>
<text text-anchor="middle" x="78.5" y="-33.5" font-family="Helvetica,sans-Serif" font-size="10.00">Type, TDownloadRequestType &gt;</text>
</a>
</g>
</g>
<!-- Node2 -->
<g id="node2" class="node">
<title>Node2</title>
<g id="a_node2"><a xlink:href="interface_f_s_h_f_standard_library_1_1_core_1_1_downloader_1_1_general_1_1_i_downloader.html" target="_top" xlink:title=" ">
<polygon fill="white" stroke="black" points="353,-49 353,-90 532,-90 532,-49 353,-49"/>
<text text-anchor="start" x="361" y="-78" font-family="Helvetica,sans-Serif" font-size="10.00">IDownloader&lt; DownloadResult</text>
<text text-anchor="start" x="361" y="-67" font-family="Helvetica,sans-Serif" font-size="10.00">WithIcaoCode&lt; string &gt;,</text>
<text text-anchor="middle" x="442.5" y="-56" font-family="Helvetica,sans-Serif" font-size="10.00"> UrlDownloadRequestWithIcaoCode &gt;</text>
</a>
</g>
</g>
<!-- Node1&#45;&gt;Node2 -->
<g id="edge1" class="edge">
<title>Node1&#45;&gt;Node2</title>
<path fill="none" stroke="orange" stroke-dasharray="5,2" d="M167.46,-48.3C223.72,-52.65 296.44,-58.28 352.83,-62.64"/>
<polygon fill="orange" stroke="orange" points="167.4,-44.79 157.16,-47.51 166.86,-51.77 167.4,-44.79"/>
<text text-anchor="start" x="175" y="-85.5" font-family="Helvetica,sans-Serif" font-size="10.00"> &lt; DownloadResultWithIcao</text>
<text text-anchor="start" x="175" y="-74.5" font-family="Helvetica,sans-Serif" font-size="10.00">Code&lt; string &gt;, UrlDownloadRequest</text>
<text text-anchor="middle" x="255" y="-63.5" font-family="Helvetica,sans-Serif" font-size="10.00">WithIcaoCode &gt;</text>
</g>
<!-- Node4 -->
<g id="node4" class="node">
<title>Node4</title>
<g id="a_node4"><a xlink:href="interface_f_s_h_f_standard_library_1_1_core_1_1_downloader_1_1_general_1_1_i_downloader.html" target="_top" xlink:title=" ">
<polygon fill="white" stroke="black" points="361.5,-0.5 361.5,-30.5 523.5,-30.5 523.5,-0.5 361.5,-0.5"/>
<text text-anchor="start" x="369.5" y="-18.5" font-family="Helvetica,sans-Serif" font-size="10.00">IDownloader&lt; DownloadResult</text>
<text text-anchor="middle" x="442.5" y="-7.5" font-family="Helvetica,sans-Serif" font-size="10.00">&lt; string &gt;, UrlDownloadRequest &gt;</text>
</a>
</g>
</g>
<!-- Node1&#45;&gt;Node4 -->
<g id="edge3" class="edge">
<title>Node1&#45;&gt;Node4</title>
<path fill="none" stroke="orange" stroke-dasharray="5,2" d="M157.53,-24.85C163.42,-23.94 169.3,-23.14 175,-22.5 237.33,-15.53 308.34,-13.98 361.37,-14.06"/>
<polygon fill="orange" stroke="orange" points="156.92,-21.41 147.62,-26.48 158.05,-28.31 156.92,-21.41"/>
<text text-anchor="start" x="198" y="-36.5" font-family="Helvetica,sans-Serif" font-size="10.00"> &lt; DownloadResult&lt; string</text>
<text text-anchor="middle" x="255" y="-25.5" font-family="Helvetica,sans-Serif" font-size="10.00"> &gt;, UrlDownloadRequest &gt;</text>
</g>
<!-- Node3 -->
<g id="node3" class="node">
<title>Node3</title>
<g id="a_node3"><a xlink:href="class_f_s_h_f_standard_library_1_1_implementations_1_1_downloader_1_1_specific_1_1_standard_url_downloader_with_icao_code.html" target="_top" xlink:title="Standard implementation of downloader by UrlDownloadRequestWithIcaoCode.">
<polygon fill="white" stroke="black" points="569,-54.5 569,-84.5 708,-84.5 708,-54.5 569,-54.5"/>
<text text-anchor="start" x="577" y="-72.5" font-family="Helvetica,sans-Serif" font-size="10.00">StandardUrlDownloaderWith</text>
<text text-anchor="middle" x="638.5" y="-61.5" font-family="Helvetica,sans-Serif" font-size="10.00">IcaoCode</text>
</a>
</g>
</g>
<!-- Node2&#45;&gt;Node3 -->
<g id="edge2" class="edge">
<title>Node2&#45;&gt;Node3</title>
<path fill="none" stroke="midnightblue" d="M542.36,-69.5C551.3,-69.5 560.22,-69.5 568.82,-69.5"/>
<polygon fill="midnightblue" stroke="midnightblue" points="542.27,-66 532.27,-69.5 542.27,-73 542.27,-66"/>
</g>
<!-- Node5 -->
<g id="node5" class="node">
<title>Node5</title>
<g id="a_node5"><a xlink:href="class_f_s_h_f_standard_library_1_1_implementations_1_1_downloader_1_1_general_1_1_standard_url_downloader.html" target="_top" xlink:title=" ">
<polygon fill="white" stroke="black" points="579,-6 579,-25 698,-25 698,-6 579,-6"/>
<text text-anchor="middle" x="638.5" y="-13" font-family="Helvetica,sans-Serif" font-size="10.00">StandardUrlDownloader</text>
</a>
</g>
</g>
<!-- Node4&#45;&gt;Node5 -->
<g id="edge4" class="edge">
<title>Node4&#45;&gt;Node5</title>
<path fill="none" stroke="midnightblue" d="M533.61,-15.5C549.03,-15.5 564.68,-15.5 578.99,-15.5"/>
<polygon fill="midnightblue" stroke="midnightblue" points="533.53,-12 523.53,-15.5 533.53,-19 533.53,-12"/>
</g>
</g>
</svg>
