<?xml version="1.0" encoding="UTF-8" standalone="no"?>
<!DOCTYPE svg PUBLIC "-//W3C//DTD SVG 1.1//EN"
 "http://www.w3.org/Graphics/SVG/1.1/DTD/svg11.dtd">
<!-- Generated by graphviz version 2.47.1 (20210421.1823)
 -->
<!-- Title: IDownloader&lt; TDownloadResultType, in in TDownloadRequestType &gt; Pages: 1 -->
<svg width="735pt" height="102pt"
 viewBox="0.00 0.00 735.00 101.50" xmlns="http://www.w3.org/2000/svg" xmlns:xlink="http://www.w3.org/1999/xlink">
<g id="graph0" class="graph" transform="scale(1 1) rotate(0) translate(4 97.5)">
<title>IDownloader&lt; TDownloadResultType, in in TDownloadRequestType &gt;</title>
<polygon fill="white" stroke="transparent" points="-4,4 -4,-97.5 731,-97.5 731,4 -4,4"/>
<!-- Node1 -->
<g id="node1" class="node">
<title>Node1</title>
<g id="a_node1"><a xlink:title="Interface of class, that can asynchronously download data of type TDownloadResultType &#160;by collection ...">
<polygon fill="#bfbfbf" stroke="black" points="0,-26.5 0,-56.5 176,-56.5 176,-26.5 0,-26.5"/>
<text text-anchor="start" x="8" y="-44.5" font-family="Helvetica,sans-Serif" font-size="10.00">IDownloader&lt; TDownloadResult</text>
<text text-anchor="middle" x="88" y="-33.5" font-family="Helvetica,sans-Serif" font-size="10.00">Type, in in TDownloadRequestType &gt;</text>
</a>
</g>
</g>
<!-- Node2 -->
<g id="node2" class="node">
<title>Node2</title>
<g id="a_node2"><a xlink:href="interface_f_s_h_f_standard_library_1_1_core_1_1_downloader_1_1_general_1_1_i_downloader.html" target="_top" xlink:title=" ">
<polygon fill="white" stroke="black" points="372,-49 372,-90 551,-90 551,-49 372,-49"/>
<text text-anchor="start" x="380" y="-78" font-family="Helvetica,sans-Serif" font-size="10.00">IDownloader&lt; DownloadResult</text>
<text text-anchor="start" x="380" y="-67" font-family="Helvetica,sans-Serif" font-size="10.00">WithIcaoCode&lt; string &gt;,</text>
<text text-anchor="middle" x="461.5" y="-56" font-family="Helvetica,sans-Serif" font-size="10.00"> UrlDownloadRequestWithIcaoCode &gt;</text>
</a>
</g>
</g>
<!-- Node1&#45;&gt;Node2 -->
<g id="edge1" class="edge">
<title>Node1&#45;&gt;Node2</title>
<path fill="none" stroke="orange" stroke-dasharray="5,2" d="M186.28,-48.83C243.69,-53.16 315.82,-58.6 371.69,-62.81"/>
<polygon fill="orange" stroke="orange" points="186.34,-45.33 176.1,-48.06 185.81,-52.31 186.34,-45.33"/>
<text text-anchor="start" x="194" y="-85.5" font-family="Helvetica,sans-Serif" font-size="10.00"> &lt; DownloadResultWithIcao</text>
<text text-anchor="start" x="194" y="-74.5" font-family="Helvetica,sans-Serif" font-size="10.00">Code&lt; string &gt;, UrlDownloadRequest</text>
<text text-anchor="middle" x="274" y="-63.5" font-family="Helvetica,sans-Serif" font-size="10.00">WithIcaoCode &gt;</text>
</g>
<!-- Node4 -->
<g id="node4" class="node">
<title>Node4</title>
<g id="a_node4"><a xlink:href="interface_f_s_h_f_standard_library_1_1_core_1_1_downloader_1_1_general_1_1_i_downloader.html" target="_top" xlink:title=" ">
<polygon fill="white" stroke="black" points="380.5,-0.5 380.5,-30.5 542.5,-30.5 542.5,-0.5 380.5,-0.5"/>
<text text-anchor="start" x="388.5" y="-18.5" font-family="Helvetica,sans-Serif" font-size="10.00">IDownloader&lt; DownloadResult</text>
<text text-anchor="middle" x="461.5" y="-7.5" font-family="Helvetica,sans-Serif" font-size="10.00">&lt; string &gt;, UrlDownloadRequest &gt;</text>
</a>
</g>
</g>
<!-- Node1&#45;&gt;Node4 -->
<g id="edge3" class="edge">
<title>Node1&#45;&gt;Node4</title>
<path fill="none" stroke="orange" stroke-dasharray="5,2" d="M174.54,-24.91C181.11,-23.98 187.65,-23.15 194,-22.5 256.38,-16.07 327.39,-14.49 380.41,-14.42"/>
<polygon fill="orange" stroke="orange" points="173.59,-21.51 164.22,-26.46 174.63,-28.43 173.59,-21.51"/>
<text text-anchor="start" x="217" y="-36.5" font-family="Helvetica,sans-Serif" font-size="10.00"> &lt; DownloadResult&lt; string</text>
<text text-anchor="middle" x="274" y="-25.5" font-family="Helvetica,sans-Serif" font-size="10.00"> &gt;, UrlDownloadRequest &gt;</text>
</g>
<!-- Node3 -->
<g id="node3" class="node">
<title>Node3</title>
<g id="a_node3"><a xlink:href="class_f_s_h_f_standard_library_1_1_implementations_1_1_downloader_1_1_specific_1_1_standard_url_downloader_with_icao_code.html" target="_top" xlink:title="Standard implementation of downloader by UrlDownloadRequestWithIcaoCode.">
<polygon fill="white" stroke="black" points="588,-54.5 588,-84.5 727,-84.5 727,-54.5 588,-54.5"/>
<text text-anchor="start" x="596" y="-72.5" font-family="Helvetica,sans-Serif" font-size="10.00">StandardUrlDownloaderWith</text>
<text text-anchor="middle" x="657.5" y="-61.5" font-family="Helvetica,sans-Serif" font-size="10.00">IcaoCode</text>
</a>
</g>
</g>
<!-- Node2&#45;&gt;Node3 -->
<g id="edge2" class="edge">
<title>Node2&#45;&gt;Node3</title>
<path fill="none" stroke="midnightblue" d="M561.36,-69.5C570.3,-69.5 579.22,-69.5 587.82,-69.5"/>
<polygon fill="midnightblue" stroke="midnightblue" points="561.27,-66 551.27,-69.5 561.27,-73 561.27,-66"/>
</g>
<!-- Node5 -->
<g id="node5" class="node">
<title>Node5</title>
<g id="a_node5"><a xlink:href="class_f_s_h_f_standard_library_1_1_implementations_1_1_downloader_1_1_general_1_1_standard_url_downloader.html" target="_top" xlink:title="Standard implementation of downloader by UrlDownloadRequest.">
<polygon fill="white" stroke="black" points="598,-6 598,-25 717,-25 717,-6 598,-6"/>
<text text-anchor="middle" x="657.5" y="-13" font-family="Helvetica,sans-Serif" font-size="10.00">StandardUrlDownloader</text>
</a>
</g>
</g>
<!-- Node4&#45;&gt;Node5 -->
<g id="edge4" class="edge">
<title>Node4&#45;&gt;Node5</title>
<path fill="none" stroke="midnightblue" d="M552.61,-15.5C568.03,-15.5 583.68,-15.5 597.99,-15.5"/>
<polygon fill="midnightblue" stroke="midnightblue" points="552.53,-12 542.53,-15.5 552.53,-19 552.53,-12"/>
</g>
</g>
</svg>
