<?xml version="1.0" encoding="UTF-8" standalone="no"?>
<!DOCTYPE svg PUBLIC "-//W3C//DTD SVG 1.1//EN"
 "http://www.w3.org/Graphics/SVG/1.1/DTD/svg11.dtd">
<!-- Generated by graphviz version 2.47.1 (20210421.1823)
 -->
<!-- Title: IIcaoCodeContainer Pages: 1 -->
<svg width="366pt" height="84pt"
 viewBox="0.00 0.00 365.50 84.00" xmlns="http://www.w3.org/2000/svg" xmlns:xlink="http://www.w3.org/1999/xlink">
<g id="graph0" class="graph" transform="scale(1 1) rotate(0) translate(4 80)">
<title>IIcaoCodeContainer</title>
<polygon fill="white" stroke="transparent" points="-4,4 -4,-80 361.5,-80 361.5,4 -4,4"/>
<!-- Node1 -->
<g id="node1" class="node">
<title>Node1</title>
<g id="a_node1"><a xlink:title="Interface of a class, that contains IcaoCode for representing airport ICAO code.">
<polygon fill="#bfbfbf" stroke="black" points="128,-56.5 128,-75.5 230,-75.5 230,-56.5 128,-56.5"/>
<text text-anchor="middle" x="179" y="-63.5" font-family="Helvetica,sans-Serif" font-size="10.00">IIcaoCodeContainer</text>
</a>
</g>
</g>
<!-- Node2 -->
<g id="node2" class="node">
<title>Node2</title>
<g id="a_node2"><a xlink:href="class_f_s_h_f_standard_library_1_1_core_1_1_downloader_1_1_specific_1_1_download_result_with_icao_code.html" target="_top" xlink:title="Class representing the result of downloading data of type T .">
<polygon fill="white" stroke="black" points="0,-0.5 0,-19.5 170,-19.5 170,-0.5 0,-0.5"/>
<text text-anchor="middle" x="85" y="-7.5" font-family="Helvetica,sans-Serif" font-size="10.00">DownloadResultWithIcaoCode&lt; T &gt;</text>
</a>
</g>
</g>
<!-- Node1&#45;&gt;Node2 -->
<g id="edge1" class="edge">
<title>Node1&#45;&gt;Node2</title>
<path fill="none" stroke="midnightblue" d="M154.94,-51.18C137.64,-41.24 114.85,-28.15 100.07,-19.65"/>
<polygon fill="midnightblue" stroke="midnightblue" points="153.48,-54.38 163.9,-56.32 156.97,-48.31 153.48,-54.38"/>
</g>
<!-- Node3 -->
<g id="node3" class="node">
<title>Node3</title>
<g id="a_node3"><a xlink:href="class_f_s_h_f_standard_library_1_1_core_1_1_downloader_1_1_specific_1_1_url_download_request_with_icao_code.html" target="_top" xlink:title="Request for downloading data by URL. Request contains airport ICAO code IcaoCode.">
<polygon fill="white" stroke="black" points="188.5,-0.5 188.5,-19.5 357.5,-19.5 357.5,-0.5 188.5,-0.5"/>
<text text-anchor="middle" x="273" y="-7.5" font-family="Helvetica,sans-Serif" font-size="10.00">UrlDownloadRequestWithIcaoCode</text>
</a>
</g>
</g>
<!-- Node1&#45;&gt;Node3 -->
<g id="edge2" class="edge">
<title>Node1&#45;&gt;Node3</title>
<path fill="none" stroke="midnightblue" d="M203.06,-51.18C220.36,-41.24 243.15,-28.15 257.93,-19.65"/>
<polygon fill="midnightblue" stroke="midnightblue" points="201.03,-48.31 194.1,-56.32 204.52,-54.38 201.03,-48.31"/>
</g>
</g>
</svg>
